<?xml version="1.0" encoding="UTF-8"?>
<svg version="1.1" xmlns="http://www.w3.org/2000/svg" width="225" height="225">
<path d="M0 0 C74.25 0 148.5 0 225 0 C225 74.25 225 148.5 225 225 C150.75 225 76.5 225 0 225 C0 150.75 0 76.5 0 0 Z " fill="#FBFAFB" transform="translate(0,0)"/>
<path d="M0 0 C1.39057353 0.49257733 2.77987041 0.9887713 4.16796875 1.48828125 C5.14926758 1.83536133 5.14926758 1.83536133 6.15039062 2.18945312 C13.92384009 4.95897047 21.62740058 7.90275569 29.35546875 10.80078125 C29.35546875 60.63078125 29.35546875 110.46078125 29.35546875 161.80078125 C-4.64453125 174.80078125 -4.64453125 174.80078125 -10.64453125 173.80078125 C-12.89303373 172.02276131 -14.82523969 170.3149338 -16.83203125 168.30078125 C-17.97803332 167.19538619 -19.12650523 166.09254639 -20.27734375 164.9921875 C-21.1286084 164.17451904 -21.1286084 164.17451904 -21.99707031 163.34033203 C-24.30509917 161.18348111 -26.73927662 159.2089085 -29.20703125 157.23828125 C-33.70188518 153.63065539 -37.9504533 149.8081666 -42.16650391 145.88427734 C-45.37769998 142.91348059 -48.67089966 140.10109804 -52.08203125 137.36328125 C-56.26690678 133.99731661 -60.22765556 130.46900296 -64.14453125 126.80078125 C-68.91757024 122.33110446 -73.83006354 118.13236312 -78.93359375 114.0390625 C-82.86756946 110.79098169 -86.59480337 107.33824654 -90.33203125 103.8671875 C-92.66255816 101.68708488 -92.66255816 101.68708488 -95.64453125 99.80078125 C-99.24610953 100.12075618 -101.55835768 101.98615107 -104.39453125 104.11328125 C-105.84279297 105.19222656 -105.84279297 105.19222656 -107.3203125 106.29296875 C-108.42842201 107.12885775 -109.53649245 107.96479853 -110.64453125 108.80078125 C-111.92928277 109.7622598 -113.21445841 110.72317182 -114.5 111.68359375 C-117.90455346 114.22962192 -121.30353408 116.78297153 -124.70068359 119.33886719 C-127.59639945 121.516655 -130.49550769 123.68989851 -133.39453125 125.86328125 C-134.77898437 126.90162109 -134.77898437 126.90162109 -136.19140625 127.9609375 C-137.0009375 128.56808594 -137.81046875 129.17523438 -138.64453125 129.80078125 C-139.3096875 130.39761719 -139.97484375 130.99445313 -140.66015625 131.609375 C-142.64453125 132.80078125 -142.64453125 132.80078125 -147.64453125 131.80078125 C-150.94453125 130.48078125 -154.24453125 129.16078125 -157.64453125 127.80078125 C-157.64453125 100.41078125 -157.64453125 73.02078125 -157.64453125 44.80078125 C-146.64453125 39.80078125 -146.64453125 39.80078125 -141.64453125 40.80078125 C-138.953125 42.55078125 -138.953125 42.55078125 -136.08203125 44.80078125 C-135.00925846 45.63039441 -133.93633796 46.45981661 -132.86328125 47.2890625 C-132.32316406 47.7113916 -131.78304687 48.1337207 -131.2265625 48.56884766 C-127.36909613 51.57267101 -123.43346838 54.47512449 -119.515625 57.39941406 C-118.11231648 58.45043062 -116.71172348 59.50507455 -115.3125 60.56152344 C-112.74070071 62.50222452 -110.16182666 64.43322647 -107.58203125 66.36328125 C-106.74792725 66.99580811 -105.91382324 67.62833496 -105.05444336 68.2800293 C-104.2681958 68.8656665 -103.48194824 69.45130371 -102.671875 70.0546875 C-101.96796631 70.58392822 -101.26405762 71.11316895 -100.53881836 71.65844727 C-98.58503863 73.05898609 -98.58503863 73.05898609 -95.64453125 72.80078125 C-93.99998863 71.67454228 -93.99998863 71.67454228 -92.33203125 70.05078125 C-88.63519042 66.69124342 -84.88323806 63.41581738 -81.08203125 60.17578125 C-74.21408191 54.3007327 -67.38265872 48.38425704 -60.55761719 42.45947266 C-58.61209461 40.7726579 -56.66384724 39.08904107 -54.71484375 37.40625 C-49.23043023 32.66799653 -43.75553914 27.92904436 -38.39453125 23.05078125 C-35.10160159 20.06214872 -31.73136356 17.2169452 -28.26953125 14.42578125 C-23.5067317 10.58021129 -18.98925922 6.52899047 -14.52783203 2.34228516 C-9.03199234 -2.79074396 -7.04747499 -2.31894407 0 0 Z " fill="#691A99" transform="translate(176.64453125,26.19921875)"/>
<path d="M0 0 C0 21.45 0 42.9 0 65 C-7.86391326 60.50633528 -7.86391326 60.50633528 -10.54296875 58.484375 C-11.13553467 58.04206543 -11.72810059 57.59975586 -12.33862305 57.14404297 C-12.94875244 56.68400879 -13.55888184 56.22397461 -14.1875 55.75 C-18.77926024 52.33105162 -23.39695951 49.01406469 -28.1875 45.875 C-34.33333605 41.84466942 -40.16740387 37.46752044 -46 33 C-41.57837235 28.13620959 -36.41676891 24.68214823 -31 21 C-29.0780714 19.66601357 -27.15752797 18.33002955 -25.23828125 16.9921875 C-22.26012697 14.92265607 -19.28165585 12.85358323 -16.30273438 10.78515625 C-12.13277175 7.88696296 -7.96798793 4.98710883 -3.85546875 2.0078125 C-1 0 -1 0 0 0 Z " fill="#FCFBFC" transform="translate(159,80)"/>
<path d="M0 0 C2.97 0 5.94 0 9 0 C9 2.97 9 5.94 9 9 C6.36 9.33 3.72 9.66 1 10 C0.67 12.97 0.34 15.94 0 19 C2.97 19 5.94 19 9 19 C9 21.97 9 24.94 9 28 C12.3 28 15.6 28 19 28 C19 25.03 19 22.06 19 19 C21.97 19 24.94 19 28 19 C28 21.97 28 24.94 28 28 C31.3 28 34.6 28 38 28 C38.09765625 34.15234375 38.09765625 34.15234375 38 36 C37 37 37 37 35.15234375 37.09765625 C33.1015625 37.06510417 31.05078125 37.03255208 29 37 C29 40.3 29 43.6 29 47 C31.97 47 34.94 47 38 47 C38.09765625 53.15234375 38.09765625 53.15234375 38 55 C37 56 37 56 35.15234375 56.09765625 C33.1015625 56.06510417 31.05078125 56.03255208 29 56 C29 59.3 29 62.6 29 66 C30.299375 65.979375 31.59875 65.95875 32.9375 65.9375 C34.29165633 65.91600546 35.64756083 65.92851801 37 66 C38 67 38 67 38.09765625 68.84765625 C38.06510417 70.8984375 38.03255208 72.94921875 38 75 C35.03 75 32.06 75 29 75 C29 84.24 29 93.48 29 103 C31.97 103 34.94 103 38 103 C38.09765625 109.15234375 38.09765625 109.15234375 38 111 C37 112 37 112 35.15234375 112.09765625 C33.1015625 112.06510417 31.05078125 112.03255208 29 112 C29 115.3 29 118.6 29 122 C31.97 122 34.94 122 38 122 C38.09765625 128.15234375 38.09765625 128.15234375 38 130 C37 131 37 131 35.15234375 131.09765625 C33.1015625 131.06510417 31.05078125 131.03255208 29 131 C29 134.3 29 137.6 29 141 C30.9490625 140.9690625 30.9490625 140.9690625 32.9375 140.9375 C34.29165633 140.91600546 35.64756083 140.92851801 37 141 C38 142 38 142 38.09765625 143.84765625 C38.06510417 145.8984375 38.03255208 147.94921875 38 150 C35.03 150 32.06 150 29 150 C29 159.24 29 168.48 29 178 C31.97 178 34.94 178 38 178 C38.09765625 184.15234375 38.09765625 184.15234375 38 186 C37.67 186.33 37.34 186.66 37 187 C34.03 187 31.06 187 28 187 C28 137.5 28 88 28 37 C25.03 36.505 25.03 36.505 22 36 C20.16787939 35.38687514 18.35312103 34.71962957 16.55859375 34.00390625 C15.56279297 33.61009766 14.56699219 33.21628906 13.54101562 32.81054688 C12.51685547 32.39869141 11.49269531 31.98683594 10.4375 31.5625 C9.40947266 31.15451172 8.38144531 30.74652344 7.32226562 30.32617188 C-0.30059009 27.29777877 -0.30059009 27.29777877 -3.65209961 25.87084961 C-6.99150624 24.6322447 -8.61579982 24.84937194 -12 26 C-13.79073608 27.52009587 -15.34569909 29.1708832 -16.94140625 30.89453125 C-20.94265441 34.98688943 -25.53197327 38.43480463 -30 42 C-31.34191406 43.12341797 -31.34191406 43.12341797 -32.7109375 44.26953125 C-35 46 -35 46 -37 46 C-37 43.36 -37 40.72 -37 38 C-34.36 37.67 -31.72 37.34 -29 37 C-28.505 32.545 -28.505 32.545 -28 28 C-25.03 28 -22.06 28 -19 28 C-19.020625 26.700625 -19.04125 25.40125 -19.0625 24.0625 C-19.08399454 22.70834367 -19.07148199 21.35243917 -19 20 C-18 19 -18 19 -15.93359375 18.90234375 C-14.69802734 18.91974609 -14.69802734 18.91974609 -13.4375 18.9375 C-12.61121094 18.94652344 -11.78492188 18.95554687 -10.93359375 18.96484375 C-9.97646484 18.98224609 -9.97646484 18.98224609 -9 19 C-9.01160156 18.36191406 -9.02320313 17.72382813 -9.03515625 17.06640625 C-9.04417969 16.24011719 -9.05320313 15.41382813 -9.0625 14.5625 C-9.07410156 13.73878906 -9.08570313 12.91507813 -9.09765625 12.06640625 C-9 10 -9 10 -8 9 C-5.32941149 8.85884839 -2.67567762 8.95752893 0 9 C0 6.03 0 3.06 0 0 Z " fill="#ECEAED" transform="translate(178,0)"/>
<path d="M0 0 C2.97 0 5.94 0 9 0 C9 2.97 9 5.94 9 9 C6.36 9.33 3.72 9.66 1 10 C0.67 12.97 0.34 15.94 0 19 C2.97 19 5.94 19 9 19 C9 21.97 9 24.94 9 28 C6.03 28 3.06 28 0 28 C0 30.97 0 33.94 0 37 C-2.97 37 -5.94 37 -9 37 C-9 34.03 -9 31.06 -9 28 C-11.97 28.33 -14.94 28.66 -18 29 C-18.33 31.64 -18.66 34.28 -19 37 C-21.97 37 -24.94 37 -28 37 C-28 34.03 -28 31.06 -28 28 C-25.03 28 -22.06 28 -19 28 C-19.020625 26.700625 -19.04125 25.40125 -19.0625 24.0625 C-19.08399454 22.70834367 -19.07148199 21.35243917 -19 20 C-18 19 -18 19 -15.93359375 18.90234375 C-14.69802734 18.91974609 -14.69802734 18.91974609 -13.4375 18.9375 C-12.61121094 18.94652344 -11.78492187 18.95554687 -10.93359375 18.96484375 C-9.97646484 18.98224609 -9.97646484 18.98224609 -9 19 C-9.01160156 18.36191406 -9.02320312 17.72382813 -9.03515625 17.06640625 C-9.04417969 16.24011719 -9.05320312 15.41382813 -9.0625 14.5625 C-9.07410156 13.73878906 -9.08570312 12.91507813 -9.09765625 12.06640625 C-9 10 -9 10 -8 9 C-5.32941149 8.85884839 -2.67567762 8.95752893 0 9 C0 6.03 0 3.06 0 0 Z " fill="#EEEEEE" transform="translate(103,0)"/>
<path d="M0 0 C9.24 0 18.48 0 28 0 C28 2.97 28 5.94 28 9 C25.36 9.33 22.72 9.66 20 10 C19.67 12.97 19.34 15.94 19 19 C16.03 19.33 13.06 19.66 10 20 C9.67 22.64 9.34 25.28 9 28 C6.03 28 3.06 28 0 28 C0 18.76 0 9.52 0 0 Z " fill="#FEFEFE" transform="translate(0,0)"/>
<path d="M0 0 C3.1941048 1.5970524 5.31875237 2.9274284 8.00390625 5.15234375 C8.74447266 5.76400391 9.48503906 6.37566406 10.24804688 7.00585938 C11.01181641 7.64330078 11.77558594 8.28074219 12.5625 8.9375 C13.33013672 9.57107422 14.09777344 10.20464844 14.88867188 10.85742188 C18.04461862 13.47407868 21.14057435 16.0573386 24 19 C21.39166332 21.13409365 18.78292281 23.26766014 16.171875 25.3984375 C14.06684362 27.11967144 11.97432757 28.85457993 9.890625 30.6015625 C8.42882812 31.81972656 8.42882812 31.81972656 6.9375 33.0625 C6.03902344 33.81660156 5.14054687 34.57070312 4.21484375 35.34765625 C2 37 2 37 0 37 C0 24.79 0 12.58 0 0 Z " fill="#FBFAFB" transform="translate(37,94)"/>
<path d="M0 0 C2.97 0 5.94 0 9 0 C9 2.97 9 5.94 9 9 C6.03 9 3.06 9 0 9 C0.33 11.97 0.66 14.94 1 18 C3.64 18.33 6.28 18.66 9 19 C9 21.97 9 24.94 9 28 C6.03 28 3.06 28 0 28 C-0.33 25.36 -0.66 22.72 -1 20 C-3.97 19.67 -6.94 19.34 -10 19 C-10 21.97 -10 24.94 -10 28 C-13.63 28 -17.26 28 -21 28 C-20.34 27.67 -19.68 27.34 -19 27 C-19 24.36 -19 21.72 -19 19 C-15.04 18.505 -15.04 18.505 -11 18 C-10.67 15.03 -10.34 12.06 -10 9 C-5.545 8.505 -5.545 8.505 -1 8 C-0.67 5.36 -0.34 2.72 0 0 Z " fill="#FEFEFE" transform="translate(66,47)"/>
<path d="M0 0 C2.97 0 5.94 0 9 0 C9.33 2.64 9.66 5.28 10 8 C12.97 8.33 15.94 8.66 19 9 C19 6.03 19 3.06 19 0 C21.97 0 24.94 0 28 0 C28 2.97 28 5.94 28 9 C25.36 9.33 22.72 9.66 20 10 C19.67 12.97 19.34 15.94 19 19 C16.03 19.33 13.06 19.66 10 20 C9.67 22.64 9.34 25.28 9 28 C6.03 28 3.06 28 0 28 C0 25.03 0 22.06 0 19 C2.97 19 5.94 19 9 19 C8.67 16.03 8.34 13.06 8 10 C5.36 9.67 2.72 9.34 0 9 C0 6.03 0 3.06 0 0 Z " fill="#FEFEFE" transform="translate(75,150)"/>
<path d="M0 0 C3.3 0 6.6 0 10 0 C10 2.97 10 5.94 10 9 C7.36 9.33 4.72 9.66 2 10 C1.67 12.97 1.34 15.94 1 19 C3.97 19 6.94 19 10 19 C10 21.97 10 24.94 10 28 C6.7 28 3.4 28 0 28 C0 25.03 0 22.06 0 19 C-2.97 19 -5.94 19 -9 19 C-9.09765625 12.06640625 -9.09765625 12.06640625 -9 10 C-8 9 -8 9 -6.15234375 8.90234375 C-4.1015625 8.93489583 -2.05078125 8.96744792 0 9 C0 6.03 0 3.06 0 0 Z " fill="#FEFEFE" transform="translate(187,0)"/>
<path d="M0 0 C3.3 0 6.6 0 10 0 C10 2.97 10 5.94 10 9 C6.7169902 10.6415049 3.57454967 9.51888624 0 9 C0 6.03 0 3.06 0 0 Z M-6.15234375 8.90234375 C-4.1015625 8.93489583 -2.05078125 8.96744792 0 9 C0.33 11.97 0.66 14.94 1 18 C3.97 18.33 6.94 18.66 10 19 C10 21.97 10 24.94 10 28 C6.7 28 3.4 28 0 28 C0 25.03 0 22.06 0 19 C-2.97 19 -5.94 19 -9 19 C-9.09765625 12.06640625 -9.09765625 12.06640625 -9 10 C-8 9 -8 9 -6.15234375 8.90234375 Z " fill="#FDFDFD" transform="translate(56,150)"/>
<path d="M0 0 C3.3 0 6.6 0 10 0 C10 2.97 10 5.94 10 9 C6.7169902 10.6415049 3.57454967 9.51888624 0 9 C0 6.03 0 3.06 0 0 Z M-6.15234375 8.90234375 C-4.1015625 8.93489583 -2.05078125 8.96744792 0 9 C0.33 11.97 0.66 14.94 1 18 C3.97 18.33 6.94 18.66 10 19 C10 21.97 10 24.94 10 28 C6.7 28 3.4 28 0 28 C0 25.03 0 22.06 0 19 C-2.97 19 -5.94 19 -9 19 C-9.09765625 12.06640625 -9.09765625 12.06640625 -9 10 C-8 9 -8 9 -6.15234375 8.90234375 Z " fill="#FDFDFD" transform="translate(131,0)"/>
<path d="M0 0 C3.3 0 6.6 0 10 0 C10 2.97 10 5.94 10 9 C6.7169902 10.6415049 3.57454967 9.51888624 0 9 C0 6.03 0 3.06 0 0 Z M-6.15234375 8.90234375 C-4.1015625 8.93489583 -2.05078125 8.96744792 0 9 C0.33 11.97 0.66 14.94 1 18 C3.97 18.33 6.94 18.66 10 19 C10 21.97 10 24.94 10 28 C6.7 28 3.4 28 0 28 C0 25.03 0 22.06 0 19 C-2.97 19 -5.94 19 -9 19 C-9.09765625 12.06640625 -9.09765625 12.06640625 -9 10 C-8 9 -8 9 -6.15234375 8.90234375 Z " fill="#FDFDFD" transform="translate(56,0)"/>
<path d="M0 0 C2.97 0 5.94 0 9 0 C9 2.97 9 5.94 9 9 C6.36 9.33 3.72 9.66 1 10 C0.855625 11.299375 0.71125 12.59875 0.5625 13.9375 C0.125 17.875 0.125 17.875 -1 19 C-3.65463121 19.45459858 -6.32189138 19.70243238 -9 20 C-9.33 22.64 -9.66 25.28 -10 28 C-12.97 28 -15.94 28 -19 28 C-19 25.03 -19 22.06 -19 19 C-16.03 18.67 -13.06 18.34 -10 18 C-10 15.03 -10 12.06 -10 9 C-6.7 9 -3.4 9 0 9 C0 6.03 0 3.06 0 0 Z " fill="#EEEEEE" transform="translate(94,197)"/>
<path d="M0 0 C2.97 0 5.94 0 9 0 C9 2.97 9 5.94 9 9 C6.36 9.33 3.72 9.66 1 10 C0.855625 11.299375 0.71125 12.59875 0.5625 13.9375 C0.125 17.875 0.125 17.875 -1 19 C-3.65463121 19.45459858 -6.32189138 19.70243238 -9 20 C-9.33 22.64 -9.66 25.28 -10 28 C-12.97 28 -15.94 28 -19 28 C-19 25.03 -19 22.06 -19 19 C-16.03 18.67 -13.06 18.34 -10 18 C-10 15.03 -10 12.06 -10 9 C-6.7 9 -3.4 9 0 9 C0 6.03 0 3.06 0 0 Z " fill="#EEEEEE" transform="translate(19,197)"/>
<path d="M0 0 C2.97 0 5.94 0 9 0 C9 2.97 9 5.94 9 9 C6.36 9.33 3.72 9.66 1 10 C0.855625 11.299375 0.71125 12.59875 0.5625 13.9375 C0.125 17.875 0.125 17.875 -1 19 C-3.65463121 19.45459858 -6.32189138 19.70243238 -9 20 C-9.33 22.64 -9.66 25.28 -10 28 C-12.97 28 -15.94 28 -19 28 C-19 25.03 -19 22.06 -19 19 C-16.03 18.67 -13.06 18.34 -10 18 C-10 15.03 -10 12.06 -10 9 C-6.7 9 -3.4 9 0 9 C0 6.03 0 3.06 0 0 Z " fill="#EEEEEE" transform="translate(94,47)"/>
<path d="M0 0 C2.97 0 5.94 0 9 0 C9 2.97 9 5.94 9 9 C6.36 9.33 3.72 9.66 1 10 C0.855625 11.299375 0.71125 12.59875 0.5625 13.9375 C0.125 17.875 0.125 17.875 -1 19 C-3.65463121 19.45459858 -6.32189138 19.70243238 -9 20 C-9.33 22.64 -9.66 25.28 -10 28 C-12.97 28 -15.94 28 -19 28 C-19 25.03 -19 22.06 -19 19 C-16.03 18.67 -13.06 18.34 -10 18 C-10 15.03 -10 12.06 -10 9 C-6.7 9 -3.4 9 0 9 C0 6.03 0 3.06 0 0 Z " fill="#EEEEEE" transform="translate(19,47)"/>
<path d="M0 0 C4.94515667 2.62711448 8.87775489 6.26645294 13 10 C12.01 10.66 11.02 11.32 10 12 C9.42251197 13.96361864 9.42251197 13.96361864 9.3125 16.125 C9.209375 17.40375 9.10625 18.6825 9 20 C6.03 20 3.06 20 0 20 C0 17.03 0 14.06 0 11 C-2.97 11 -5.94 11 -9 11 C-9 8.03 -9 5.06 -9 2 C-6.94921875 1.77213542 -4.8984375 1.54427083 -2.84765625 1.31640625 C-0.98859771 1.18113386 -0.98859771 1.18113386 0 0 Z " fill="#F9F7FA" transform="translate(150,186)"/>
<path d="M0 0 C-0.66 0.66 -1.32 1.32 -2 2 C-2.39764263 3.98821313 -2.73775349 5.98944339 -3 8 C-5.64 8.33 -8.28 8.66 -11 9 C-11.144375 10.299375 -11.28875 11.59875 -11.4375 12.9375 C-11.875 16.875 -11.875 16.875 -13 18 C-15.65463121 18.45459858 -18.32189138 18.70243238 -21 19 C-21.33 21.64 -21.66 24.28 -22 27 C-24.97 27 -27.94 27 -31 27 C-31 24.03 -31 21.06 -31 18 C-28.03 17.67 -25.06 17.34 -22 17 C-22 14.03 -22 11.06 -22 8 C-18.7 8 -15.4 8 -12 8 C-12.33 6.35 -12.66 4.7 -13 3 C-11.21189234 2.30329584 -9.41937948 1.61788811 -7.625 0.9375 C-6.62726563 0.55464844 -5.62953125 0.17179688 -4.6015625 -0.22265625 C-2 -1 -2 -1 0 0 Z " fill="#EEEDEE" transform="translate(181,198)"/>
<path d="M0 0 C2 1 2 1 3 2 C3.07205511 3.68608966 3.08386068 5.37500659 3.0625 7.0625 C3.05347656 7.98160156 3.04445312 8.90070313 3.03515625 9.84765625 C3.02355469 10.55792969 3.01195312 11.26820312 3 12 C0.36 12 -2.28 12 -5 12 C-5 14.97 -5 17.94 -5 21 C-7.97 21 -10.94 21 -14 21 C-15.10573603 17.51871495 -15.64913093 14.62173845 -15 11 C-11.76086071 7.61978322 -7.99927243 5.38853098 -4 3 C-2.65316625 2.01825837 -1.31389673 1.0254039 0 0 Z M-17 12 C-15 13 -15 13 -15 13 Z " fill="#EDEDEE" transform="translate(155,82)"/>
<path d="M0 0 C3.46679688 0.04882812 3.46679688 0.04882812 6.93359375 0.09765625 C6.93359375 3.06765625 6.93359375 6.03765625 6.93359375 9.09765625 C3.63359375 9.09765625 0.33359375 9.09765625 -3.06640625 9.09765625 C-3.1640625 2.9453125 -3.1640625 2.9453125 -3.06640625 1.09765625 C-2.06640625 0.09765625 -2.06640625 0.09765625 0 0 Z M-12.06640625 9.09765625 C-9.09640625 9.09765625 -6.12640625 9.09765625 -3.06640625 9.09765625 C-2.1875 16.03125 -2.1875 16.03125 -2.06640625 18.09765625 C-3.06640625 19.09765625 -3.06640625 19.09765625 -5.1328125 19.1953125 C-8.59960938 19.14648438 -8.59960938 19.14648438 -12.06640625 19.09765625 C-12.06640625 15.79765625 -12.06640625 12.49765625 -12.06640625 9.09765625 Z " fill="#FDFDFD" transform="translate(12.06640625,196.90234375)"/>
<path d="M0 0 C2.05078125 0.03255208 4.1015625 0.06510417 6.15234375 0.09765625 C6.15234375 3.39765625 6.15234375 6.69765625 6.15234375 10.09765625 C3.51234375 10.42765625 0.87234375 10.75765625 -1.84765625 11.09765625 C-2.17765625 13.73765625 -2.50765625 16.37765625 -2.84765625 19.09765625 C-5.81765625 19.09765625 -8.78765625 19.09765625 -11.84765625 19.09765625 C-11.84765625 15.79765625 -11.84765625 12.49765625 -11.84765625 9.09765625 C-8.87765625 9.09765625 -5.90765625 9.09765625 -2.84765625 9.09765625 C-2.86828125 7.79828125 -2.88890625 6.49890625 -2.91015625 5.16015625 C-2.93165079 3.80599992 -2.91913824 2.45009542 -2.84765625 1.09765625 C-1.84765625 0.09765625 -1.84765625 0.09765625 0 0 Z " fill="#FEFEFE" transform="translate(11.84765625,102.90234375)"/>
<path d="M0 0 C3.46679688 0.04882812 3.46679688 0.04882812 6.93359375 0.09765625 C6.93359375 3.06765625 6.93359375 6.03765625 6.93359375 9.09765625 C3.63359375 9.09765625 0.33359375 9.09765625 -3.06640625 9.09765625 C-3.1640625 2.9453125 -3.1640625 2.9453125 -3.06640625 1.09765625 C-2.06640625 0.09765625 -2.06640625 0.09765625 0 0 Z M-12.06640625 9.09765625 C-9.09640625 9.09765625 -6.12640625 9.09765625 -3.06640625 9.09765625 C-2.1875 16.03125 -2.1875 16.03125 -2.06640625 18.09765625 C-3.06640625 19.09765625 -3.06640625 19.09765625 -5.1328125 19.1953125 C-8.59960938 19.14648438 -8.59960938 19.14648438 -12.06640625 19.09765625 C-12.06640625 15.79765625 -12.06640625 12.49765625 -12.06640625 9.09765625 Z " fill="#FDFDFD" transform="translate(12.06640625,46.90234375)"/>
<path d="M0 0 C2.97 0 5.94 0 9 0 C9 2.97 9 5.94 9 9 C6.36 9.33 3.72 9.66 1 10 C0.67 12.97 0.34 15.94 0 19 C-6.93359375 19.09765625 -6.93359375 19.09765625 -9 19 C-10 18 -10 18 -10.09765625 15.93359375 C-10.06510417 13.62239583 -10.03255208 11.31119792 -10 9 C-7.03 9 -4.06 9 -1 9 C-0.67 6.03 -0.34 3.06 0 0 Z " fill="#EEEEEE" transform="translate(216,0)"/>
<path d="M0 0 C2.97 0 5.94 0 9 0 C9 2.97 9 5.94 9 9 C6.36 9.33 3.72 9.66 1 10 C0.67 12.97 0.34 15.94 0 19 C-6.93359375 19.09765625 -6.93359375 19.09765625 -9 19 C-10 18 -10 18 -10.09765625 15.93359375 C-10.06510417 13.62239583 -10.03255208 11.31119792 -10 9 C-7.03 9 -4.06 9 -1 9 C-0.67 6.03 -0.34 3.06 0 0 Z " fill="#EEEEEE" transform="translate(141,0)"/>
<path d="M0 0 C2.97 0 5.94 0 9 0 C9 2.97 9 5.94 9 9 C6.36 9.33 3.72 9.66 1 10 C0.67 12.97 0.34 15.94 0 19 C-6.93359375 19.09765625 -6.93359375 19.09765625 -9 19 C-10 18 -10 18 -10.09765625 15.93359375 C-10.06510417 13.62239583 -10.03255208 11.31119792 -10 9 C-7.03 9 -4.06 9 -1 9 C-0.67 6.03 -0.34 3.06 0 0 Z " fill="#EEEEEE" transform="translate(66,0)"/>
<path d="M0 0 C2.05078125 0.03255208 4.1015625 0.06510417 6.15234375 0.09765625 C6.15234375 3.39765625 6.15234375 6.69765625 6.15234375 10.09765625 C3.18234375 10.09765625 0.21234375 10.09765625 -2.84765625 10.09765625 C-2.84765625 13.06765625 -2.84765625 16.03765625 -2.84765625 19.09765625 C-6.14765625 19.09765625 -9.44765625 19.09765625 -12.84765625 19.09765625 C-12.9453125 12.9453125 -12.9453125 12.9453125 -12.84765625 11.09765625 C-10.80067211 9.05067211 -6.54354384 9.39719932 -3.84765625 9.09765625 C-3.70328125 7.79828125 -3.55890625 6.49890625 -3.41015625 5.16015625 C-2.85356362 0.1508226 -2.85356362 0.1508226 0 0 Z " fill="#FDFDFD" transform="translate(171.84765625,205.90234375)"/>
<path d="M0 0 C2.05078125 0.03255208 4.1015625 0.06510417 6.15234375 0.09765625 C6.15234375 3.39765625 6.15234375 6.69765625 6.15234375 10.09765625 C3.18234375 10.09765625 0.21234375 10.09765625 -2.84765625 10.09765625 C-2.84765625 13.06765625 -2.84765625 16.03765625 -2.84765625 19.09765625 C-6.14765625 19.09765625 -9.44765625 19.09765625 -12.84765625 19.09765625 C-12.9453125 12.9453125 -12.9453125 12.9453125 -12.84765625 11.09765625 C-10.80067211 9.05067211 -6.54354384 9.39719932 -3.84765625 9.09765625 C-3.70328125 7.79828125 -3.55890625 6.49890625 -3.41015625 5.16015625 C-2.85356362 0.1508226 -2.85356362 0.1508226 0 0 Z " fill="#FDFDFD" transform="translate(96.84765625,205.90234375)"/>
<path d="M0 0 C2.05078125 0.03255208 4.1015625 0.06510417 6.15234375 0.09765625 C6.15234375 3.39765625 6.15234375 6.69765625 6.15234375 10.09765625 C3.18234375 10.09765625 0.21234375 10.09765625 -2.84765625 10.09765625 C-2.84765625 13.06765625 -2.84765625 16.03765625 -2.84765625 19.09765625 C-6.14765625 19.09765625 -9.44765625 19.09765625 -12.84765625 19.09765625 C-12.9453125 12.9453125 -12.9453125 12.9453125 -12.84765625 11.09765625 C-10.80067211 9.05067211 -6.54354384 9.39719932 -3.84765625 9.09765625 C-3.70328125 7.79828125 -3.55890625 6.49890625 -3.41015625 5.16015625 C-2.85356362 0.1508226 -2.85356362 0.1508226 0 0 Z " fill="#FDFDFD" transform="translate(21.84765625,205.90234375)"/>
<path d="M0 0 C0.66 0.33 1.32 0.66 2 1 C1.67 1.33 1.34 1.66 1 2 C3.31 2.33 5.62 2.66 8 3 C8 5.97 8 8.94 8 12 C5.36 12.33 2.72 12.66 0 13 C-0.33 15.97 -0.66 18.94 -1 22 C-3.97 22 -6.94 22 -10 22 C-10.09765625 15.06640625 -10.09765625 15.06640625 -10 13 C-9 12 -9 12 -7.15234375 11.90234375 C-5.1015625 11.93489583 -3.05078125 11.96744792 -1 12 C-1.09539063 11.30132812 -1.19078125 10.60265625 -1.2890625 9.8828125 C-1.39992188 8.97273437 -1.51078125 8.06265625 -1.625 7.125 C-1.74101563 6.22007812 -1.85703125 5.31515625 -1.9765625 4.3828125 C-1.98429687 3.59648437 -1.99203125 2.81015625 -2 2 C-1.34 1.34 -0.68 0.68 0 0 Z " fill="#EDEDEE" transform="translate(48,147)"/>
<path d="M0 0 C3.46679688 0.04882812 3.46679688 0.04882812 6.93359375 0.09765625 C6.93359375 3.06765625 6.93359375 6.03765625 6.93359375 9.09765625 C2.47859375 9.59265625 2.47859375 9.59265625 -2.06640625 10.09765625 C-2.39640625 12.73765625 -2.72640625 15.37765625 -3.06640625 18.09765625 C-6.03640625 18.09765625 -9.00640625 18.09765625 -12.06640625 18.09765625 C-12.06640625 15.12765625 -12.06640625 12.15765625 -12.06640625 9.09765625 C-9.09640625 9.09765625 -6.12640625 9.09765625 -3.06640625 9.09765625 C-3.08703125 7.79828125 -3.10765625 6.49890625 -3.12890625 5.16015625 C-3.15040079 3.80599992 -3.13788824 2.45009542 -3.06640625 1.09765625 C-2.06640625 0.09765625 -2.06640625 0.09765625 0 0 Z " fill="#EEEEEE" transform="translate(87.06640625,187.90234375)"/>
<path d="M0 0 C3.46679688 0.04882812 3.46679688 0.04882812 6.93359375 0.09765625 C6.93359375 3.06765625 6.93359375 6.03765625 6.93359375 9.09765625 C2.47859375 9.59265625 2.47859375 9.59265625 -2.06640625 10.09765625 C-2.39640625 12.73765625 -2.72640625 15.37765625 -3.06640625 18.09765625 C-6.03640625 18.09765625 -9.00640625 18.09765625 -12.06640625 18.09765625 C-12.06640625 15.12765625 -12.06640625 12.15765625 -12.06640625 9.09765625 C-9.09640625 9.09765625 -6.12640625 9.09765625 -3.06640625 9.09765625 C-3.08703125 7.79828125 -3.10765625 6.49890625 -3.12890625 5.16015625 C-3.15040079 3.80599992 -3.13788824 2.45009542 -3.06640625 1.09765625 C-2.06640625 0.09765625 -2.06640625 0.09765625 0 0 Z " fill="#EEEEEE" transform="translate(12.06640625,187.90234375)"/>
<path d="M0 0 C3.46679688 0.04882812 3.46679688 0.04882812 6.93359375 0.09765625 C6.93359375 3.06765625 6.93359375 6.03765625 6.93359375 9.09765625 C2.47859375 9.59265625 2.47859375 9.59265625 -2.06640625 10.09765625 C-2.39640625 12.73765625 -2.72640625 15.37765625 -3.06640625 18.09765625 C-6.03640625 18.09765625 -9.00640625 18.09765625 -12.06640625 18.09765625 C-12.06640625 15.12765625 -12.06640625 12.15765625 -12.06640625 9.09765625 C-9.09640625 9.09765625 -6.12640625 9.09765625 -3.06640625 9.09765625 C-3.08703125 7.79828125 -3.10765625 6.49890625 -3.12890625 5.16015625 C-3.15040079 3.80599992 -3.13788824 2.45009542 -3.06640625 1.09765625 C-2.06640625 0.09765625 -2.06640625 0.09765625 0 0 Z " fill="#EEEEEE" transform="translate(12.06640625,168.90234375)"/>
<path d="M0 0 C2.05078125 0.03255208 4.1015625 0.06510417 6.15234375 0.09765625 C6.15234375 3.06765625 6.15234375 6.03765625 6.15234375 9.09765625 C3.18234375 9.09765625 0.21234375 9.09765625 -2.84765625 9.09765625 C-2.9453125 2.9453125 -2.9453125 2.9453125 -2.84765625 1.09765625 C-1.84765625 0.09765625 -1.84765625 0.09765625 0 0 Z M-11.84765625 9.09765625 C-8.87765625 9.09765625 -5.90765625 9.09765625 -2.84765625 9.09765625 C-1.96875 16.03125 -1.96875 16.03125 -1.84765625 18.09765625 C-2.84765625 19.09765625 -2.84765625 19.09765625 -4.9140625 19.1953125 C-8.38085938 19.14648438 -8.38085938 19.14648438 -11.84765625 19.09765625 C-11.84765625 15.79765625 -11.84765625 12.49765625 -11.84765625 9.09765625 Z " fill="#FEFEFE" transform="translate(11.84765625,121.90234375)"/>
<path d="M0 0 C3.46679688 0.04882812 3.46679688 0.04882812 6.93359375 0.09765625 C6.93359375 3.06765625 6.93359375 6.03765625 6.93359375 9.09765625 C2.47859375 9.59265625 2.47859375 9.59265625 -2.06640625 10.09765625 C-2.39640625 12.73765625 -2.72640625 15.37765625 -3.06640625 18.09765625 C-6.03640625 18.09765625 -9.00640625 18.09765625 -12.06640625 18.09765625 C-12.06640625 15.12765625 -12.06640625 12.15765625 -12.06640625 9.09765625 C-9.09640625 9.09765625 -6.12640625 9.09765625 -3.06640625 9.09765625 C-3.08703125 7.79828125 -3.10765625 6.49890625 -3.12890625 5.16015625 C-3.15040079 3.80599992 -3.13788824 2.45009542 -3.06640625 1.09765625 C-2.06640625 0.09765625 -2.06640625 0.09765625 0 0 Z " fill="#EEEEEE" transform="translate(87.06640625,37.90234375)"/>
<path d="M0 0 C3.46679688 0.04882812 3.46679688 0.04882812 6.93359375 0.09765625 C6.93359375 3.06765625 6.93359375 6.03765625 6.93359375 9.09765625 C2.47859375 9.59265625 2.47859375 9.59265625 -2.06640625 10.09765625 C-2.39640625 12.73765625 -2.72640625 15.37765625 -3.06640625 18.09765625 C-6.03640625 18.09765625 -9.00640625 18.09765625 -12.06640625 18.09765625 C-12.06640625 15.12765625 -12.06640625 12.15765625 -12.06640625 9.09765625 C-9.09640625 9.09765625 -6.12640625 9.09765625 -3.06640625 9.09765625 C-3.08703125 7.79828125 -3.10765625 6.49890625 -3.12890625 5.16015625 C-3.15040079 3.80599992 -3.13788824 2.45009542 -3.06640625 1.09765625 C-2.06640625 0.09765625 -2.06640625 0.09765625 0 0 Z " fill="#EEEEEE" transform="translate(12.06640625,37.90234375)"/>
<path d="M0 0 C2.97 0 5.94 0 9 0 C9 2.97 9 5.94 9 9 C6.36 9.33 3.72 9.66 1 10 C0.67 12.97 0.34 15.94 0 19 C-2.97 19 -5.94 19 -9 19 C-9.09765625 12.06640625 -9.09765625 12.06640625 -9 10 C-8 9 -8 9 -6.15234375 8.90234375 C-4.1015625 8.93489583 -2.05078125 8.96744792 0 9 C0 6.03 0 3.06 0 0 Z " fill="#EEEEEE" transform="translate(197,0)"/>
<path d="M0 0 C2.97 0 5.94 0 9 0 C9 2.97 9 5.94 9 9 C6.36 9.33 3.72 9.66 1 10 C0.67 12.97 0.34 15.94 0 19 C-2.97 19 -5.94 19 -9 19 C-9.09765625 12.06640625 -9.09765625 12.06640625 -9 10 C-8 9 -8 9 -6.15234375 8.90234375 C-4.1015625 8.93489583 -2.05078125 8.96744792 0 9 C0 6.03 0 3.06 0 0 Z " fill="#EEEEEE" transform="translate(122,0)"/>
<path d="M0 0 C2.97 0 5.94 0 9 0 C9 2.97 9 5.94 9 9 C6.36 9.33 3.72 9.66 1 10 C0.67 12.97 0.34 15.94 0 19 C-2.97 19 -5.94 19 -9 19 C-9.09765625 12.06640625 -9.09765625 12.06640625 -9 10 C-8 9 -8 9 -6.15234375 8.90234375 C-4.1015625 8.93489583 -2.05078125 8.96744792 0 9 C0 6.03 0 3.06 0 0 Z " fill="#EEEEEE" transform="translate(47,0)"/>
<path d="M0 0 C1.31611677 0.95336021 2.62778961 1.91285774 3.9375 2.875 C4.66839844 3.40867188 5.39929688 3.94234375 6.15234375 4.4921875 C8 6 8 6 9 8 C7 11 7 11 5.0546875 11.51171875 C4.33539063 11.56972656 3.61609375 11.62773437 2.875 11.6875 C1.59625 11.790625 0.3175 11.89375 -1 12 C-1.33 14.64 -1.66 17.28 -2 20 C-4.97 20 -7.94 20 -11 20 C-11 17.03 -11 14.06 -11 11 C-6.545 10.505 -6.545 10.505 -2 10 C-2 7.03 -2 4.06 -2 1 C-1.34 0.67 -0.68 0.34 0 0 Z " fill="#EEEEEE" transform="translate(86,130)"/>
<path d="M0 0 C2.05078125 0.03255208 4.1015625 0.06510417 6.15234375 0.09765625 C6.15234375 3.06765625 6.15234375 6.03765625 6.15234375 9.09765625 C3.51234375 9.42765625 0.87234375 9.75765625 -1.84765625 10.09765625 C-2.17765625 12.73765625 -2.50765625 15.37765625 -2.84765625 18.09765625 C-5.81765625 18.09765625 -8.78765625 18.09765625 -11.84765625 18.09765625 C-11.84765625 15.12765625 -11.84765625 12.15765625 -11.84765625 9.09765625 C-8.87765625 9.09765625 -5.90765625 9.09765625 -2.84765625 9.09765625 C-2.86828125 7.79828125 -2.88890625 6.49890625 -2.91015625 5.16015625 C-2.93165079 3.80599992 -2.91913824 2.45009542 -2.84765625 1.09765625 C-1.84765625 0.09765625 -1.84765625 0.09765625 0 0 Z " fill="#EEEEEE" transform="translate(11.84765625,93.90234375)"/>
<path d="M0 0 C2.97 0 5.94 0 9 0 C9 2.97 9 5.94 9 9 C12.3 9 15.6 9 19 9 C19 11.64 19 14.28 19 17 C14.24845021 17 12.81145675 15.88064225 8.9375 13.25 C7.89464844 12.55390625 6.85179687 11.8578125 5.77734375 11.140625 C3.2758896 9.21264065 1.61088685 7.69216706 0 5 C-0.1875 2.25 -0.1875 2.25 0 0 Z " fill="#EDECEE" transform="translate(122,113)"/>
<path d="M0 0 C2.00005783 0.99093774 3.26011429 2.17413143 4.71875 3.8515625 C4.38875 4.5115625 4.05875 5.1715625 3.71875 5.8515625 C0.74875 5.8515625 -2.22125 5.8515625 -5.28125 5.8515625 C-5.28125 8.8215625 -5.28125 11.7915625 -5.28125 14.8515625 C-8.25125 14.8515625 -11.22125 14.8515625 -14.28125 14.8515625 C-14.640625 12.16015625 -14.640625 12.16015625 -14.28125 8.8515625 C-12.35262674 6.84106372 -10.77476155 5.46625945 -8.53125 3.9140625 C-7.99242188 3.50349609 -7.45359375 3.09292969 -6.8984375 2.66992188 C-2.94177979 -0.19141718 -2.94177979 -0.19141718 0 0 Z " fill="#EDEBEE" transform="translate(80.28125,125.1484375)"/>
<path d="M0 0 C0.66 0 1.32 0 2 0 C2 0.66 2 1.32 2 2 C1.34 2 0.68 2 0 2 C0 1.34 0 0.68 0 0 Z M-9 2 C-6.03 2 -3.06 2 0 2 C0.87890625 8.93359375 0.87890625 8.93359375 1 11 C0 12 0 12 -2.06640625 12.09765625 C-5.53320312 12.04882812 -5.53320312 12.04882812 -9 12 C-9 8.7 -9 5.4 -9 2 Z " fill="#FDFDFD" transform="translate(84,129)"/>
<path d="M0 0 C6.93359375 -0.09765625 6.93359375 -0.09765625 9 0 C10 1 10 1 10.09765625 2.84765625 C10.04882812 5.92382812 10.04882812 5.92382812 10 9 C6.7 9 3.4 9 0 9 C0 6.03 0 3.06 0 0 Z " fill="#EEEEEE" transform="translate(206,216)"/>
<path d="M0 0 C6.93359375 -0.09765625 6.93359375 -0.09765625 9 0 C10 1 10 1 10.09765625 2.84765625 C10.04882812 5.92382812 10.04882812 5.92382812 10 9 C6.7 9 3.4 9 0 9 C0 6.03 0 3.06 0 0 Z " fill="#EEEEEE" transform="translate(131,216)"/>
<path d="M0 0 C6.93359375 -0.09765625 6.93359375 -0.09765625 9 0 C10 1 10 1 10.09765625 2.84765625 C10.04882812 5.92382812 10.04882812 5.92382812 10 9 C6.7 9 3.4 9 0 9 C0 6.03 0 3.06 0 0 Z " fill="#EEEEEE" transform="translate(56,216)"/>
<path d="M0 0 C2.97 0 5.94 0 9 0 C9 3.3 9 6.6 9 10 C2.84765625 10.09765625 2.84765625 10.09765625 1 10 C0 9 0 9 -0.09765625 6.93359375 C-0.06510417 4.62239583 -0.03255208 2.31119792 0 0 Z " fill="#EEEEEE" transform="translate(216,206)"/>
<path d="M0 0 C2.97 0 5.94 0 9 0 C9.09765625 6.93359375 9.09765625 6.93359375 9 9 C8 10 8 10 6.15234375 10.09765625 C4.1015625 10.06510417 2.05078125 10.03255208 0 10 C0 6.7 0 3.4 0 0 Z " fill="#EEEEEE" transform="translate(197,206)"/>
<path d="M0 0 C2.97 0 5.94 0 9 0 C9.09765625 6.93359375 9.09765625 6.93359375 9 9 C8 10 8 10 6.15234375 10.09765625 C4.1015625 10.06510417 2.05078125 10.03255208 0 10 C0 6.7 0 3.4 0 0 Z " fill="#EEEEEE" transform="translate(178,206)"/>
<path d="M0 0 C2.97 0 5.94 0 9 0 C9 3.3 9 6.6 9 10 C2.84765625 10.09765625 2.84765625 10.09765625 1 10 C0 9 0 9 -0.09765625 6.93359375 C-0.06510417 4.62239583 -0.03255208 2.31119792 0 0 Z " fill="#EEEEEE" transform="translate(141,206)"/>
<path d="M0 0 C2.97 0 5.94 0 9 0 C9.09765625 6.93359375 9.09765625 6.93359375 9 9 C8 10 8 10 6.15234375 10.09765625 C4.1015625 10.06510417 2.05078125 10.03255208 0 10 C0 6.7 0 3.4 0 0 Z " fill="#EEEEEE" transform="translate(122,206)"/>
<path d="M0 0 C2.97 0 5.94 0 9 0 C9.09765625 6.93359375 9.09765625 6.93359375 9 9 C8 10 8 10 6.15234375 10.09765625 C4.1015625 10.06510417 2.05078125 10.03255208 0 10 C0 6.7 0 3.4 0 0 Z " fill="#EEEEEE" transform="translate(103,206)"/>
<path d="M0 0 C2.97 0 5.94 0 9 0 C9 3.3 9 6.6 9 10 C2.84765625 10.09765625 2.84765625 10.09765625 1 10 C0 9 0 9 -0.09765625 6.93359375 C-0.06510417 4.62239583 -0.03255208 2.31119792 0 0 Z " fill="#EEEEEE" transform="translate(66,206)"/>
<path d="M0 0 C2.97 0 5.94 0 9 0 C9.09765625 6.93359375 9.09765625 6.93359375 9 9 C8 10 8 10 6.15234375 10.09765625 C4.1015625 10.06510417 2.05078125 10.03255208 0 10 C0 6.7 0 3.4 0 0 Z " fill="#EEEEEE" transform="translate(47,206)"/>
<path d="M0 0 C2.97 0 5.94 0 9 0 C9.09765625 6.93359375 9.09765625 6.93359375 9 9 C8 10 8 10 6.15234375 10.09765625 C4.1015625 10.06510417 2.05078125 10.03255208 0 10 C0 6.7 0 3.4 0 0 Z " fill="#EEEEEE" transform="translate(28,206)"/>
<path d="M0 0 C3.3 0 6.6 0 10 0 C10.09765625 6.15234375 10.09765625 6.15234375 10 8 C9 9 9 9 6.93359375 9.09765625 C3.46679688 9.04882812 3.46679688 9.04882812 0 9 C0 6.03 0 3.06 0 0 Z " fill="#EEEEEE" transform="translate(206,197)"/>
<path d="M0 0 C3.3 0 6.6 0 10 0 C10.09765625 6.15234375 10.09765625 6.15234375 10 8 C9 9 9 9 6.93359375 9.09765625 C3.46679688 9.04882812 3.46679688 9.04882812 0 9 C0 6.03 0 3.06 0 0 Z " fill="#EEEEEE" transform="translate(131,197)"/>
<path d="M0 0 C3.3 0 6.6 0 10 0 C10.09765625 6.15234375 10.09765625 6.15234375 10 8 C9 9 9 9 6.93359375 9.09765625 C3.46679688 9.04882812 3.46679688 9.04882812 0 9 C0 6.03 0 3.06 0 0 Z " fill="#EEEEEE" transform="translate(56,197)"/>
<path d="M0 0 C3.3 0 6.6 0 10 0 C10.09765625 6.15234375 10.09765625 6.15234375 10 8 C9 9 9 9 6.93359375 9.09765625 C3.46679688 9.04882812 3.46679688 9.04882812 0 9 C0 6.03 0 3.06 0 0 Z " fill="#EEEEEE" transform="translate(56,178)"/>
<path d="M0 0 C0.721875 0.53625 1.44375 1.0725 2.1875 1.625 C1.8575 4.265 1.5275 6.905 1.1875 9.625 C-1.7825 9.625 -4.7525 9.625 -7.8125 9.625 C-7.8125 6.655 -7.8125 3.685 -7.8125 0.625 C-4.49183748 -1.17764537 -3.49974382 -1.71098587 0 0 Z " fill="#EDEDEE" transform="translate(120.8125,159.375)"/>
<path d="M0 0 C6.15234375 -0.09765625 6.15234375 -0.09765625 8 0 C9 1 9 1 9.09765625 3.06640625 C9.06510417 5.37760417 9.03255208 7.68880208 9 10 C6.03 10 3.06 10 0 10 C0 6.7 0 3.4 0 0 Z " fill="#EEEEEE" transform="translate(75,159)"/>
<path d="M0 0 C6.15234375 -0.09765625 6.15234375 -0.09765625 8 0 C9 1 9 1 9.09765625 3.06640625 C9.06510417 5.37760417 9.03255208 7.68880208 9 10 C6.03 10 3.06 10 0 10 C0 6.7 0 3.4 0 0 Z " fill="#EEEEEE" transform="translate(0,159)"/>
<path d="M0 0 C2.05078125 0.03255208 4.1015625 0.06510417 6.15234375 0.09765625 C6.15234375 3.39765625 6.15234375 6.69765625 6.15234375 10.09765625 C3.18234375 10.09765625 0.21234375 10.09765625 -2.84765625 10.09765625 C-2.9453125 3.1640625 -2.9453125 3.1640625 -2.84765625 1.09765625 C-1.84765625 0.09765625 -1.84765625 0.09765625 0 0 Z " fill="#FEFEFE" transform="translate(218.84765625,158.90234375)"/>
<path d="M0 0 C2.05078125 0.03255208 4.1015625 0.06510417 6.15234375 0.09765625 C6.15234375 3.39765625 6.15234375 6.69765625 6.15234375 10.09765625 C3.18234375 10.09765625 0.21234375 10.09765625 -2.84765625 10.09765625 C-2.9453125 3.1640625 -2.9453125 3.1640625 -2.84765625 1.09765625 C-1.84765625 0.09765625 -1.84765625 0.09765625 0 0 Z " fill="#FEFEFE" transform="translate(68.84765625,158.90234375)"/>
<path d="M0 0 C3.3 0 6.6 0 10 0 C10 2.97 10 5.94 10 9 C3.06640625 9.09765625 3.06640625 9.09765625 1 9 C0 8 0 8 -0.09765625 6.15234375 C-0.06510417 4.1015625 -0.03255208 2.05078125 0 0 Z " fill="#EEEEEE" transform="translate(84,150)"/>
<path d="M0 0 C2.97 0 5.94 0 9 0 C9 3.3 9 6.6 9 10 C2.84765625 10.09765625 2.84765625 10.09765625 1 10 C0 9 0 9 -0.09765625 6.93359375 C-0.06510417 4.62239583 -0.03255208 2.31119792 0 0 Z " fill="#EEEEEE" transform="translate(216,131)"/>
<path d="M0 0 C6.15234375 -0.09765625 6.15234375 -0.09765625 8 0 C9 1 9 1 9.09765625 3.06640625 C9.06510417 5.37760417 9.03255208 7.68880208 9 10 C6.03 10 3.06 10 0 10 C0 6.7 0 3.4 0 0 Z " fill="#EEEEEE" transform="translate(0,84)"/>
<path d="M0 0 C2.05078125 0.03255208 4.1015625 0.06510417 6.15234375 0.09765625 C6.15234375 3.39765625 6.15234375 6.69765625 6.15234375 10.09765625 C3.18234375 10.09765625 0.21234375 10.09765625 -2.84765625 10.09765625 C-2.9453125 3.1640625 -2.9453125 3.1640625 -2.84765625 1.09765625 C-1.84765625 0.09765625 -1.84765625 0.09765625 0 0 Z " fill="#FEFEFE" transform="translate(218.84765625,83.90234375)"/>
<path d="M0 0 C2.97 0 5.94 0 9 0 C9 3.3 9 6.6 9 10 C2.84765625 10.09765625 2.84765625 10.09765625 1 10 C0 9 0 9 -0.09765625 6.93359375 C-0.06510417 4.62239583 -0.03255208 2.31119792 0 0 Z " fill="#EEEEEE" transform="translate(216,56)"/>
<path d="M0 0 C2.97 0 5.94 0 9 0 C9.09765625 6.93359375 9.09765625 6.93359375 9 9 C8 10 8 10 6.15234375 10.09765625 C4.1015625 10.06510417 2.05078125 10.03255208 0 10 C0 6.7 0 3.4 0 0 Z " fill="#EEEEEE" transform="translate(103,56)"/>
<path d="M0 0 C2.97 0 5.94 0 9 0 C9 3.3 9 6.6 9 10 C2.84765625 10.09765625 2.84765625 10.09765625 1 10 C0 9 0 9 -0.09765625 6.93359375 C-0.06510417 4.62239583 -0.03255208 2.31119792 0 0 Z " fill="#EEEEEE" transform="translate(66,56)"/>
<path d="M0 0 C2.97 0 5.94 0 9 0 C9.09765625 6.93359375 9.09765625 6.93359375 9 9 C8 10 8 10 6.15234375 10.09765625 C4.1015625 10.06510417 2.05078125 10.03255208 0 10 C0 6.7 0 3.4 0 0 Z " fill="#EEEEEE" transform="translate(47,56)"/>
<path d="M0 0 C3.3 0 6.6 0 10 0 C10.09765625 6.15234375 10.09765625 6.15234375 10 8 C9 9 9 9 6.93359375 9.09765625 C3.46679688 9.04882812 3.46679688 9.04882812 0 9 C0 6.03 0 3.06 0 0 Z " fill="#EEEEEE" transform="translate(56,47)"/>
<path d="M0 0 C3.3 0 6.6 0 10 0 C10.09765625 6.15234375 10.09765625 6.15234375 10 8 C9 9 9 9 6.93359375 9.09765625 C3.46679688 9.04882812 3.46679688 9.04882812 0 9 C0 6.03 0 3.06 0 0 Z " fill="#EEEEEE" transform="translate(131,28)"/>
<path d="M0 0 C3.3 0 6.6 0 10 0 C10.09765625 6.15234375 10.09765625 6.15234375 10 8 C9 9 9 9 6.93359375 9.09765625 C3.46679688 9.04882812 3.46679688 9.04882812 0 9 C0 6.03 0 3.06 0 0 Z " fill="#EEEEEE" transform="translate(56,28)"/>
<path d="M0 0 C6.15234375 -0.09765625 6.15234375 -0.09765625 8 0 C9 1 9 1 9.09765625 3.06640625 C9.06510417 5.37760417 9.03255208 7.68880208 9 10 C6.03 10 3.06 10 0 10 C0 6.7 0 3.4 0 0 Z " fill="#EEEEEE" transform="translate(150,9)"/>
<path d="M0 0 C6.15234375 -0.09765625 6.15234375 -0.09765625 8 0 C9 1 9 1 9.09765625 3.06640625 C9.06510417 5.37760417 9.03255208 7.68880208 9 10 C6.03 10 3.06 10 0 10 C0 6.7 0 3.4 0 0 Z " fill="#EEEEEE" transform="translate(75,9)"/>
<path d="M0 0 C6.15234375 -0.09765625 6.15234375 -0.09765625 8 0 C9 1 9 1 9.09765625 3.06640625 C9.06510417 5.37760417 9.03255208 7.68880208 9 10 C6.03 10 3.06 10 0 10 C0 6.7 0 3.4 0 0 Z " fill="#EEEEEE" transform="translate(0,9)"/>
<path d="M0 0 C2.05078125 0.03255208 4.1015625 0.06510417 6.15234375 0.09765625 C6.15234375 3.39765625 6.15234375 6.69765625 6.15234375 10.09765625 C3.18234375 10.09765625 0.21234375 10.09765625 -2.84765625 10.09765625 C-2.9453125 3.1640625 -2.9453125 3.1640625 -2.84765625 1.09765625 C-1.84765625 0.09765625 -1.84765625 0.09765625 0 0 Z " fill="#FEFEFE" transform="translate(143.84765625,8.90234375)"/>
<path d="M0 0 C2.05078125 0.03255208 4.1015625 0.06510417 6.15234375 0.09765625 C6.15234375 3.39765625 6.15234375 6.69765625 6.15234375 10.09765625 C3.18234375 10.09765625 0.21234375 10.09765625 -2.84765625 10.09765625 C-2.9453125 3.1640625 -2.9453125 3.1640625 -2.84765625 1.09765625 C-1.84765625 0.09765625 -1.84765625 0.09765625 0 0 Z " fill="#FEFEFE" transform="translate(68.84765625,8.90234375)"/>
<path d="M0 0 C3.3 0 6.6 0 10 0 C10 2.97 10 5.94 10 9 C3.06640625 9.09765625 3.06640625 9.09765625 1 9 C0 8 0 8 -0.09765625 6.15234375 C-0.06510417 4.1015625 -0.03255208 2.05078125 0 0 Z " fill="#EEEEEE" transform="translate(159,0)"/>
<path d="M0 0 C3.3 0 6.6 0 10 0 C10 2.97 10 5.94 10 9 C3.06640625 9.09765625 3.06640625 9.09765625 1 9 C0 8 0 8 -0.09765625 6.15234375 C-0.06510417 4.1015625 -0.03255208 2.05078125 0 0 Z " fill="#EEEEEE" transform="translate(84,0)"/>
<path d="M0 0 C3.3 0 6.6 0 10 0 C10 2.97 10 5.94 10 9 C3.06640625 9.09765625 3.06640625 9.09765625 1 9 C0 8 0 8 -0.09765625 6.15234375 C-0.06510417 4.1015625 -0.03255208 2.05078125 0 0 Z " fill="#EEEEEE" transform="translate(9,0)"/>
<path d="M0 0 C2.97 0 5.94 0 9 0 C9.29296875 6.8359375 9.29296875 6.8359375 9 9 C8.01 9.66 7.02 10.32 6 11 C2.8125 10.125 2.8125 10.125 0 9 C0 6.03 0 3.06 0 0 Z " fill="#EEEDEE" transform="translate(28,56)"/>
<path d="M0 0 C2.97 0 5.94 0 9 0 C9 2.97 9 5.94 9 9 C5.7 9.33 2.4 9.66 -1 10 C-0.67 6.7 -0.34 3.4 0 0 Z " fill="#FEFEFE" transform="translate(141,122)"/>
<path d="M0 0 C2.97 0 5.94 0 9 0 C9 3.3 9 6.6 9 10 C6.03 9.67 3.06 9.34 0 9 C0 6.03 0 3.06 0 0 Z " fill="#FEFEFE" transform="translate(122,47)"/>
<path d="M0 0 C2.97 0 5.94 0 9 0 C9 2.97 9 5.94 9 9 C5.93109813 10.53445094 3.29905734 9.54984289 0 9 C0 6.03 0 3.06 0 0 Z " fill="#FEFEFE" transform="translate(207,150)"/>
<path d="M0 0 C0.99 0.495 0.99 0.495 2 1 C1.67 9.91 1.34 18.82 1 28 C3.64 28 6.28 28 9 28 C7.65365543 32.4062186 5.80625626 34.43077702 2 37 C1.34 37 0.68 37 0 37 C0 24.79 0 12.58 0 0 Z " fill="#D6CBE0" transform="translate(37,94)"/>
<path d="M0 0 C2.97 0 5.94 0 9 0 C9 2.97 9 5.94 9 9 C5.93109813 10.53445094 3.29905734 9.54984289 0 9 C0 6.03 0 3.06 0 0 Z " fill="#FEFEFE" transform="translate(207,75)"/>
<path d="M0 0 C2.97 0 5.94 0 9 0 C9 2.97 9 5.94 9 9 C6.03 9 3.06 9 0 9 C0 6.03 0 3.06 0 0 Z " fill="#EDEDED" transform="translate(188,216)"/>
<path d="M0 0 C2.97 0 5.94 0 9 0 C9 2.97 9 5.94 9 9 C6.03 9 3.06 9 0 9 C0 6.03 0 3.06 0 0 Z " fill="#EDEDED" transform="translate(169,216)"/>
<path d="M0 0 C2.97 0 5.94 0 9 0 C9 2.97 9 5.94 9 9 C6.03 9 3.06 9 0 9 C0 6.03 0 3.06 0 0 Z " fill="#EDEDED" transform="translate(113,216)"/>
<path d="M0 0 C2.97 0 5.94 0 9 0 C9 2.97 9 5.94 9 9 C6.03 9 3.06 9 0 9 C0 6.03 0 3.06 0 0 Z " fill="#EDEDED" transform="translate(94,216)"/>
<path d="M0 0 C2.97 0 5.94 0 9 0 C9 2.97 9 5.94 9 9 C6.03 9 3.06 9 0 9 C0 6.03 0 3.06 0 0 Z " fill="#EDEDED" transform="translate(38,216)"/>
<path d="M0 0 C2.97 0 5.94 0 9 0 C9 2.97 9 5.94 9 9 C6.03 9 3.06 9 0 9 C0 6.03 0 3.06 0 0 Z " fill="#EDEDED" transform="translate(19,216)"/>
<path d="M0 0 C2.97 0 5.94 0 9 0 C9 2.97 9 5.94 9 9 C6.03 9 3.06 9 0 9 C0 6.03 0 3.06 0 0 Z " fill="#FFFFFF" transform="translate(197,197)"/>
<path d="M0 0 C2.97 0 5.94 0 9 0 C9 2.97 9 5.94 9 9 C6.03 9 3.06 9 0 9 C0 6.03 0 3.06 0 0 Z " fill="#EDEDED" transform="translate(188,197)"/>
<path d="M0 0 C2.97 0 5.94 0 9 0 C9 2.97 9 5.94 9 9 C6.03 9 3.06 9 0 9 C0 6.03 0 3.06 0 0 Z " fill="#EDEDED" transform="translate(150,197)"/>
<path d="M0 0 C2.97 0 5.94 0 9 0 C9 2.97 9 5.94 9 9 C6.03 9 3.06 9 0 9 C0 6.03 0 3.06 0 0 Z " fill="#FFFFFF" transform="translate(122,197)"/>
<path d="M0 0 C2.97 0 5.94 0 9 0 C9 2.97 9 5.94 9 9 C6.03 9 3.06 9 0 9 C0 6.03 0 3.06 0 0 Z " fill="#EDEDED" transform="translate(113,197)"/>
<path d="M0 0 C2.97 0 5.94 0 9 0 C9 2.97 9 5.94 9 9 C6.03 9 3.06 9 0 9 C0 6.03 0 3.06 0 0 Z " fill="#FFFFFF" transform="translate(47,197)"/>
<path d="M0 0 C2.97 0 5.94 0 9 0 C9 2.97 9 5.94 9 9 C6.03 9 3.06 9 0 9 C0 6.03 0 3.06 0 0 Z " fill="#EDEDED" transform="translate(38,197)"/>
<path d="M0 0 C2.97 0 5.94 0 9 0 C9 2.97 9 5.94 9 9 C6.03 9 3.06 9 0 9 C0 6.03 0 3.06 0 0 Z " fill="#EDEDED" transform="translate(216,188)"/>
<path d="M0 0 C2.97 0 5.94 0 9 0 C9 2.97 9 5.94 9 9 C6.03 9 3.06 9 0 9 C0 6.03 0 3.06 0 0 Z " fill="#EDEDED" transform="translate(141,188)"/>
<path d="M0 0 C2.97 0 5.94 0 9 0 C9 2.97 9 5.94 9 9 C6.03 9 3.06 9 0 9 C0 6.03 0 3.06 0 0 Z " fill="#EDEDED" transform="translate(122,188)"/>
<path d="M0 0 C2.97 0 5.94 0 9 0 C9 2.97 9 5.94 9 9 C6.03 9 3.06 9 0 9 C0 6.03 0 3.06 0 0 Z " fill="#EDEDED" transform="translate(103,188)"/>
<path d="M0 0 C2.97 0 5.94 0 9 0 C9 2.97 9 5.94 9 9 C6.03 9 3.06 9 0 9 C0 6.03 0 3.06 0 0 Z " fill="#EDEDED" transform="translate(66,188)"/>
<path d="M0 0 C2.97 0 5.94 0 9 0 C9 2.97 9 5.94 9 9 C6.03 9 3.06 9 0 9 C0 6.03 0 3.06 0 0 Z " fill="#EDEDED" transform="translate(47,188)"/>
<path d="M0 0 C2.97 0 5.94 0 9 0 C9 2.97 9 5.94 9 9 C6.03 9 3.06 9 0 9 C0 6.03 0 3.06 0 0 Z " fill="#EDEDED" transform="translate(28,188)"/>
<path d="M0 0 C2.97 0 5.94 0 9 0 C9 2.97 9 5.94 9 9 C6.03 9 3.06 9 0 9 C0 6.03 0 3.06 0 0 Z " fill="#EDEDED" transform="translate(113,178)"/>
<path d="M0 0 C2.97 0 5.94 0 9 0 C9 2.97 9 5.94 9 9 C6.03 9 3.06 9 0 9 C0 6.03 0 3.06 0 0 Z " fill="#EDEDED" transform="translate(94,178)"/>
<path d="M0 0 C2.97 0 5.94 0 9 0 C9 2.97 9 5.94 9 9 C6.03 9 3.06 9 0 9 C0 6.03 0 3.06 0 0 Z " fill="#EDEDED" transform="translate(38,178)"/>
<path d="M0 0 C2.97 0 5.94 0 9 0 C9 2.97 9 5.94 9 9 C6.03 9 3.06 9 0 9 C0 6.03 0 3.06 0 0 Z " fill="#EDEDED" transform="translate(19,178)"/>
<path d="M0 0 C2.97 0 5.94 0 9 0 C9 2.97 9 5.94 9 9 C6.03 9 3.06 9 0 9 C0 6.03 0 3.06 0 0 Z " fill="#EDEDED" transform="translate(216,169)"/>
<path d="M0 0 C2.97 0 5.94 0 9 0 C9 2.97 9 5.94 9 9 C6.03 9 3.06 9 0 9 C0 6.03 0 3.06 0 0 Z " fill="#FEFEFE" transform="translate(207,169)"/>
<path d="M0 0 C2.97 0 5.94 0 9 0 C9 2.97 9 5.94 9 9 C6.03 9 3.06 9 0 9 C0 6.03 0 3.06 0 0 Z " fill="#EDEDED" transform="translate(103,169)"/>
<path d="M0 0 C2.97 0 5.94 0 9 0 C9 2.97 9 5.94 9 9 C6.03 9 3.06 9 0 9 C0 6.03 0 3.06 0 0 Z " fill="#FFFFFF" transform="translate(94,169)"/>
<path d="M0 0 C2.97 0 5.94 0 9 0 C9 2.97 9 5.94 9 9 C6.03 9 3.06 9 0 9 C0 6.03 0 3.06 0 0 Z " fill="#EDEDED" transform="translate(66,169)"/>
<path d="M0 0 C2.97 0 5.94 0 9 0 C9 2.97 9 5.94 9 9 C6.03 9 3.06 9 0 9 C0 6.03 0 3.06 0 0 Z " fill="#EDEDED" transform="translate(47,169)"/>
<path d="M0 0 C2.97 0 5.94 0 9 0 C9 2.97 9 5.94 9 9 C6.03 9 3.06 9 0 9 C0 6.03 0 3.06 0 0 Z " fill="#EDEDED" transform="translate(28,169)"/>
<path d="M0 0 C2.97 0 5.94 0 9 0 C9 2.97 9 5.94 9 9 C6.03 9 3.06 9 0 9 C0 6.03 0 3.06 0 0 Z " fill="#FFFFFF" transform="translate(19,169)"/>
<path d="M0 0 C2.97 0 5.94 0 9 0 C9 2.97 9 5.94 9 9 C6.03 9 3.06 9 0 9 C0 6.03 0 3.06 0 0 Z " fill="#FFFFFF" transform="translate(0,169)"/>
<path d="M0 0 C2.97 0 5.94 0 9 0 C9 2.97 9 5.94 9 9 C6.03 9 3.06 9 0 9 C0 6.03 0 3.06 0 0 Z " fill="#EEEEEE" transform="translate(19,160)"/>
<path d="M0 0 C2.97 0 5.94 0 9 0 C9 2.97 9 5.94 9 9 C6.03 9 3.06 9 0 9 C0 6.03 0 3.06 0 0 Z " fill="#FFFFFF" transform="translate(66,141)"/>
<path d="M0 0 C2.97 0 5.94 0 9 0 C9 2.97 9 5.94 9 9 C6.03 9 3.06 9 0 9 C0 6.03 0 3.06 0 0 Z " fill="#EDEDED" transform="translate(0,141)"/>
<path d="M0 0 C2.97 0 5.94 0 9 0 C9 2.97 9 5.94 9 9 C6.03 9 3.06 9 0 9 C0 6.03 0 3.06 0 0 Z " fill="#EDEDED" transform="translate(216,113)"/>
<path d="M0 0 C2.97 0 5.94 0 9 0 C9 2.97 9 5.94 9 9 C6.03 9 3.06 9 0 9 C0 6.03 0 3.06 0 0 Z " fill="#EDEDED" transform="translate(141,113)"/>
<path d="M0 0 C2.97 0 5.94 0 9 0 C9 2.97 9 5.94 9 9 C6.03 9 3.06 9 0 9 C0 6.03 0 3.06 0 0 Z " fill="#EEEEEE" transform="translate(131,103)"/>
<path d="M0 0 C2.97 0 5.94 0 9 0 C9 2.97 9 5.94 9 9 C6.03 9 3.06 9 0 9 C0 6.03 0 3.06 0 0 Z " fill="#EDEDED" transform="translate(216,94)"/>
<path d="M0 0 C2.97 0 5.94 0 9 0 C9 2.97 9 5.94 9 9 C6.03 9 3.06 9 0 9 C0 6.03 0 3.06 0 0 Z " fill="#FEFEFE" transform="translate(207,94)"/>
<path d="M0 0 C2.97 0 5.94 0 9 0 C9 2.97 9 5.94 9 9 C6.03 9 3.06 9 0 9 C0 6.03 0 3.06 0 0 Z " fill="#EEEEEE" transform="translate(75,85)"/>
<path d="M0 0 C2.97 0 5.94 0 9 0 C9 2.97 9 5.94 9 9 C6.03 9 3.06 9 0 9 C0 6.03 0 3.06 0 0 Z " fill="#EEEEEE" transform="translate(85,75)"/>
<path d="M0 0 C2.97 0 5.94 0 9 0 C9 2.97 9 5.94 9 9 C6.03 9 3.06 9 0 9 C0 6.03 0 3.06 0 0 Z " fill="#FFFFFF" transform="translate(75,75)"/>
<path d="M0 0 C2.97 0 5.94 0 9 0 C9 2.97 9 5.94 9 9 C6.03 9 3.06 9 0 9 C0 6.03 0 3.06 0 0 Z " fill="#EDEDED" transform="translate(66,75)"/>
<path d="M0 0 C2.97 0 5.94 0 9 0 C9 2.97 9 5.94 9 9 C6.03 9 3.06 9 0 9 C0 6.03 0 3.06 0 0 Z " fill="#EDEDED" transform="translate(94,66)"/>
<path d="M0 0 C2.97 0 5.94 0 9 0 C9 2.97 9 5.94 9 9 C6.03 9 3.06 9 0 9 C0 6.03 0 3.06 0 0 Z " fill="#EDEDED" transform="translate(113,47)"/>
<path d="M0 0 C2.97 0 5.94 0 9 0 C9 2.97 9 5.94 9 9 C6.03 9 3.06 9 0 9 C0 6.03 0 3.06 0 0 Z " fill="#FFFFFF" transform="translate(47,47)"/>
<path d="M0 0 C2.97 0 5.94 0 9 0 C9 2.97 9 5.94 9 9 C6.03 9 3.06 9 0 9 C0 6.03 0 3.06 0 0 Z " fill="#EDEDED" transform="translate(38,47)"/>
<path d="M0 0 C2.97 0 5.94 0 9 0 C9 2.97 9 5.94 9 9 C6.03 9 3.06 9 0 9 C0 6.03 0 3.06 0 0 Z " fill="#EDEDED" transform="translate(216,38)"/>
<path d="M0 0 C2.97 0 5.94 0 9 0 C9 2.97 9 5.94 9 9 C6.03 9 3.06 9 0 9 C0 6.03 0 3.06 0 0 Z " fill="#EDEDED" transform="translate(122,38)"/>
<path d="M0 0 C2.97 0 5.94 0 9 0 C9 2.97 9 5.94 9 9 C6.03 9 3.06 9 0 9 C0 6.03 0 3.06 0 0 Z " fill="#EDEDED" transform="translate(103,38)"/>
<path d="M0 0 C2.97 0 5.94 0 9 0 C9 2.97 9 5.94 9 9 C6.03 9 3.06 9 0 9 C0 6.03 0 3.06 0 0 Z " fill="#EDEDED" transform="translate(66,38)"/>
<path d="M0 0 C2.97 0 5.94 0 9 0 C9 2.97 9 5.94 9 9 C6.03 9 3.06 9 0 9 C0 6.03 0 3.06 0 0 Z " fill="#EDEDED" transform="translate(47,38)"/>
<path d="M0 0 C2.97 0 5.94 0 9 0 C9 2.97 9 5.94 9 9 C6.03 9 3.06 9 0 9 C0 6.03 0 3.06 0 0 Z " fill="#EDEDED" transform="translate(28,38)"/>
<path d="M0 0 C2.97 0 5.94 0 9 0 C9 2.97 9 5.94 9 9 C6.03 9 3.06 9 0 9 C0 6.03 0 3.06 0 0 Z " fill="#EDEDED" transform="translate(113,28)"/>
<path d="M0 0 C2.97 0 5.94 0 9 0 C9 2.97 9 5.94 9 9 C6.03 9 3.06 9 0 9 C0 6.03 0 3.06 0 0 Z " fill="#EDEDED" transform="translate(38,28)"/>
<path d="M0 0 C2.97 0 5.94 0 9 0 C9 2.97 9 5.94 9 9 C6.03 9 3.06 9 0 9 C0 6.03 0 3.06 0 0 Z " fill="#EDEDED" transform="translate(216,19)"/>
<path d="M0 0 C2.97 0 5.94 0 9 0 C9 2.97 9 5.94 9 9 C6.03 9 3.06 9 0 9 C0 6.03 0 3.06 0 0 Z " fill="#EDEDED" transform="translate(197,19)"/>
<path d="M0 0 C2.97 0 5.94 0 9 0 C9 2.97 9 5.94 9 9 C6.03 9 3.06 9 0 9 C0 6.03 0 3.06 0 0 Z " fill="#EDEDED" transform="translate(141,19)"/>
<path d="M0 0 C2.97 0 5.94 0 9 0 C9 2.97 9 5.94 9 9 C6.03 9 3.06 9 0 9 C0 6.03 0 3.06 0 0 Z " fill="#EDEDED" transform="translate(122,19)"/>
<path d="M0 0 C2.97 0 5.94 0 9 0 C9 2.97 9 5.94 9 9 C6.03 9 3.06 9 0 9 C0 6.03 0 3.06 0 0 Z " fill="#EDEDED" transform="translate(103,19)"/>
<path d="M0 0 C2.97 0 5.94 0 9 0 C9 2.97 9 5.94 9 9 C6.03 9 3.06 9 0 9 C0 6.03 0 3.06 0 0 Z " fill="#FFFFFF" transform="translate(94,19)"/>
<path d="M0 0 C2.97 0 5.94 0 9 0 C9 2.97 9 5.94 9 9 C6.03 9 3.06 9 0 9 C0 6.03 0 3.06 0 0 Z " fill="#EDEDED" transform="translate(66,19)"/>
<path d="M0 0 C2.97 0 5.94 0 9 0 C9 2.97 9 5.94 9 9 C6.03 9 3.06 9 0 9 C0 6.03 0 3.06 0 0 Z " fill="#EDEDED" transform="translate(47,19)"/>
<path d="M0 0 C2.97 0 5.94 0 9 0 C9 2.97 9 5.94 9 9 C6.03 9 3.06 9 0 9 C0 6.03 0 3.06 0 0 Z " fill="#EDEDED" transform="translate(28,19)"/>
<path d="M0 0 C2.97 0 5.94 0 9 0 C9 2.97 9 5.94 9 9 C6.03 9 3.06 9 0 9 C0 6.03 0 3.06 0 0 Z " fill="#FFFFFF" transform="translate(19,19)"/>
<path d="M0 0 C2.97 0 5.94 0 9 0 C9 2.97 9 5.94 9 9 C6.03 9 3.06 9 0 9 C0 6.03 0 3.06 0 0 Z " fill="#EDEDED" transform="translate(178,0)"/>
<path d="M0 0 C6.15234375 -0.09765625 6.15234375 -0.09765625 8 0 C9 1 9 1 9.09765625 2.84765625 C9.04882812 5.92382812 9.04882812 5.92382812 9 9 C6.03 9 3.06 9 0 9 C0 6.03 0 3.06 0 0 Z " fill="#EDEDED" transform="translate(122,169)"/>
<path d="M0 0 C2.05078125 0.03255208 4.1015625 0.06510417 6.15234375 0.09765625 C6.15234375 3.06765625 6.15234375 6.03765625 6.15234375 9.09765625 C3.18234375 9.09765625 0.21234375 9.09765625 -2.84765625 9.09765625 C-2.9453125 2.9453125 -2.9453125 2.9453125 -2.84765625 1.09765625 C-1.84765625 0.09765625 -1.84765625 0.09765625 0 0 Z " fill="#FEFEFE" transform="translate(11.84765625,140.90234375)"/>
<path d="M0 0 C2.97 0 5.94 0 9 0 C9 2.97 9 5.94 9 9 C2.84765625 9.09765625 2.84765625 9.09765625 1 9 C0 8 0 8 -0.09765625 6.15234375 C-0.06510417 4.1015625 -0.03255208 2.05078125 0 0 Z " fill="#EEEEEE" transform="translate(9,75)"/>
<path d="M0 0 C6.15234375 -0.09765625 6.15234375 -0.09765625 8 0 C9 1 9 1 9.09765625 2.84765625 C9.04882812 5.92382812 9.04882812 5.92382812 9 9 C6.03 9 3.06 9 0 9 C0 6.03 0 3.06 0 0 Z " fill="#EEEEEE" transform="translate(207,66)"/>
<path d="M0 0 C2.97 0 5.94 0 9 0 C9.09765625 6.15234375 9.09765625 6.15234375 9 8 C8 9 8 9 6.15234375 9.09765625 C4.1015625 9.06510417 2.05078125 9.03255208 0 9 C0 6.03 0 3.06 0 0 Z " fill="#EEEEEE" transform="translate(207,47)"/>
<path d="M0 0 C2.97 0 5.94 0 9 0 C9 2.97 9 5.94 9 9 C5.0507432 8.44894091 1.65079826 7.61064629 -2 6 C-2 5.34 -2 4.68 -2 4 C-1.34 4 -0.68 4 0 4 C0 2.68 0 1.36 0 0 Z " fill="#FAF8FB" transform="translate(197,28)"/>
<path d="M0 0 C2.64 0 5.28 0 8 0 C8 2.97 8 5.94 8 9 C5.36 9 2.72 9 0 9 C0 6.03 0 3.06 0 0 Z " fill="#EDEDED" transform="translate(150,122)"/>
<path d="M0 0 C2.64 0 5.28 0 8 0 C8 2.97 8 5.94 8 9 C5.36 9 2.72 9 0 9 C0 6.03 0 3.06 0 0 Z " fill="#EDEDED" transform="translate(150,103)"/>
<path d="M0 0 C2.64 0 5.28 0 8 0 C8 2.97 8 5.94 8 9 C5.36 9 2.72 9 0 9 C0 6.03 0 3.06 0 0 Z " fill="#EDEDED" transform="translate(39,103)"/>
<path d="M0 0 C0 2.64 0 5.28 0 8 C-2.97 8 -5.94 8 -9 8 C-9 6.35 -9 4.7 -9 3 C-9.66 2.67 -10.32 2.34 -11 2 C-9.54494642 1.47007308 -8.08581873 0.9513211 -6.625 0.4375 C-5.81289062 0.14746094 -5.00078125 -0.14257812 -4.1640625 -0.44140625 C-2 -1 -2 -1 0 0 Z " fill="#ECEBED" transform="translate(206,189)"/>
<path d="M0 0 C2.97 0 5.94 0 9 0 C9.33 0.99 9.66 1.98 10 3 C7.36 5.31 4.72 7.62 2 10 C1.34 9.67 0.68 9.34 0 9 C0 6.03 0 3.06 0 0 Z " fill="#EDECEE" transform="translate(47,113)"/>
<path d="M0 0 C2.97 0 5.94 0 9 0 C9 2.64 9 5.28 9 8 C5.81390075 7.64598897 4.20933322 7.16972964 1.6875 5.125 C0 3 0 3 0 0 Z " fill="#EBEAED" transform="translate(38,66)"/>
<path d="M0 0 C2.97 0 5.94 0 9 0 C9 2.31 9 4.62 9 7 C6.01644824 7.24862931 4.35134151 7.18991433 1.6875 5.75 C0 4 0 4 0 0 Z " fill="#FBFAFC" transform="translate(169,19)"/>
<path d="M0 0 C3.3 0 6.6 0 10 0 C7.12505529 3.98069267 4.17882671 6.43571997 0 9 C0 6.03 0 3.06 0 0 Z " fill="#ECEAEE" transform="translate(131,47)"/>
<path d="M0 0 C0 1.65 0 3.3 0 5 C-3.96 5 -7.92 5 -12 5 C-12 4.34 -12 3.68 -12 3 C-4.71428571 -0.42857143 -4.71428571 -0.42857143 0 0 Z " fill="#F6F4F8" transform="translate(197,192)"/>
<path d="M0 0 C3.3 0 6.6 0 10 0 C10 1.98 10 3.96 10 6 C6.62972148 6 5.93297304 5.50175992 3.3125 3.5625 C2.68988281 3.11003906 2.06726562 2.65757813 1.42578125 2.19140625 C0.95527344 1.79824219 0.48476563 1.40507813 0 1 C0 0.67 0 0.34 0 0 Z " fill="#EBE9ED" transform="translate(46,75)"/>
<path d="M0 0 C3.3 0.99 6.6 1.98 10 3 C9.67 3.99 9.34 4.98 9 6 C2.84765625 6.09765625 2.84765625 6.09765625 1 6 C0.67 5.67 0.34 5.34 0 5 C0 3.35 0 1.7 0 0 Z " fill="#F6F3F8" transform="translate(19,154)"/>
<path d="M0 0 C0 1.65 0 3.3 0 5 C2.97 5 5.94 5 9 5 C9 5.33 9 5.66 9 6 C6.03 6 3.06 6 0 6 C0 8.97 0 11.94 0 15 C-0.33 15 -0.66 15 -1 15 C-1 12.03 -1 9.06 -1 6 C-2.65 6 -4.3 6 -6 6 C-2.61538462 0 -2.61538462 0 0 0 Z " fill="#F7F6F7" transform="translate(66,135)"/>
<path d="M0 0 C2.97 0 5.94 0 9 0 C9 1.98 9 3.96 9 6 C4.9666466 6 3.16482462 4.39120082 0 2 C0 1.34 0 0.68 0 0 Z " fill="#EBE9ED" transform="translate(141,131)"/>
<path d="M0 0 C0 2.31 0 4.62 0 7 C-2.64 7 -5.28 7 -8 7 C-4.13157895 0 -4.13157895 0 0 0 Z " fill="#FCFBFD" transform="translate(56,143)"/>
<path d="M0 0 C0.66 0.33 1.32 0.66 2 1 C1.34 2.98 0.68 4.96 0 7 C-0.78375 7.12375 -1.5675 7.2475 -2.375 7.375 C-5.14057822 7.79117993 -5.14057822 7.79117993 -7 10 C-7.66 9.01 -8.32 8.02 -9 7 C-6.03 4.69 -3.06 2.38 0 0 Z " fill="#ECE9EF" transform="translate(122,105)"/>
<path d="M0 0 C0 2.31 0 4.62 0 7 C-2.64 7 -5.28 7 -8 7 C-4.13157895 0 -4.13157895 0 0 0 Z " fill="#FBFAFB" transform="translate(150,87)"/>
<path d="M0 0 C2.31 0 4.62 0 7 0 C7 0.99 7 1.98 7 3 C4 5.1875 4 5.1875 1 7 C0 6 0 6 -0.0625 2.9375 C-0.041875 1.968125 -0.02125 0.99875 0 0 Z " fill="#ECE9ED" transform="translate(122,56)"/>
<path d="M0 0 C2.97 0 5.94 0 9 0 C9.33 0.66 9.66 1.32 10 2 C5.05 3.485 5.05 3.485 0 5 C0 3.35 0 1.7 0 0 Z " fill="#EBE8ED" transform="translate(19,66)"/>
<path d="M0 0 C1.98 0.495 1.98 0.495 4 1 C3.34 2.32 2.68 3.64 2 5 C1.01 5 0.02 5 -1 5 C-0.67 3.35 -0.34 1.7 0 0 Z " fill="#E8E4EB" transform="translate(113,66)"/>
</svg>
