<?xml version="1.0" encoding="UTF-8"?>
<svg version="1.1" xmlns="http://www.w3.org/2000/svg" width="226" height="223">
<path d="M0 0 C74.58 0 149.16 0 226 0 C226 73.59 226 147.18 226 223 C151.42 223 76.84 223 0 223 C0 149.41 0 75.82 0 0 Z " fill="#2489C9" transform="translate(0,0)"/>
<path d="M0 0 C74.58 0 149.16 0 226 0 C226 73.59 226 147.18 226 223 C151.42 223 76.84 223 0 223 C0 149.41 0 75.82 0 0 Z M151.5 11.9375 C150.7255957 12.65776367 150.7255957 12.65776367 149.93554688 13.39257812 C148.8421913 14.40962249 147.7504239 15.42837656 146.66015625 16.44873047 C143.95227614 18.9790055 141.2250046 21.48819969 138.5 24 C137.41269797 25.00383862 136.32545834 26.00774482 135.23828125 27.01171875 C120.83594913 40.3045122 120.83594913 40.3045122 115.6875 44.75 C113.1891729 46.91349975 110.81858508 49.1449428 108.5 51.5 C105.5547928 54.4915363 102.47054257 57.25099229 99.29296875 59.9921875 C96.5309439 62.41072374 93.8259273 64.88881225 91.125 67.375 C86.46830565 71.66145986 81.77891938 75.90848581 77.05859375 80.125 C75.0069979 81.91112276 75.0069979 81.91112276 73.47265625 83.8125 C72.74369141 84.4003125 72.74369141 84.4003125 72 85 C68.86495186 84.55026525 66.91751856 83.41634488 64.453125 81.48046875 C63.78063721 80.95831787 63.10814941 80.43616699 62.4152832 79.89819336 C61.70073975 79.33366455 60.98619629 78.76913574 60.25 78.1875 C58.72838695 77.00453612 57.20623803 75.82226124 55.68359375 74.640625 C54.90870605 74.03669922 54.13381836 73.43277344 53.33544922 72.81054688 C49.68836221 69.9831585 46.00376889 67.20682184 42.3125 64.4375 C41.66635742 63.94983154 41.02021484 63.46216309 40.35449219 62.9597168 C39.14202927 62.04941791 37.92465216 61.14561491 36.70166016 60.24951172 C35.07129357 59.05235014 33.46277815 57.8256007 31.85546875 56.59765625 C29.16043708 54.77184488 29.16043708 54.77184488 26.35546875 55.0625 C23.81042721 56.07545186 22.30652614 57.13141151 20.3125 59 C19.63703125 59.62132812 18.9615625 60.24265625 18.265625 60.8828125 C17.51796875 61.58148438 16.7703125 62.28015625 16 63 C14.1895641 64.62729932 12.37704225 66.25228078 10.5625 67.875 C6.44688924 71.13648608 6.44688924 71.13648608 4.5 75.62890625 C5.24935924 80.68122672 8.2473513 82.70105595 12 85.9375 C13.0367688 86.86598755 13.0367688 86.86598755 14.09448242 87.81323242 C16.04947795 89.55829554 18.02142391 91.28177694 20 93 C21.20076172 94.06347656 21.20076172 94.06347656 22.42578125 95.1484375 C23.64261709 96.2216716 24.86613951 97.28739428 26.09765625 98.34375 C29.36244279 101.18619249 32.52577526 104.14247679 35.703125 107.08203125 C37.75619065 108.7964109 39.55989475 109.94224795 42 111 C40.89388002 112.10611998 39.7873709 113.2118519 38.6796875 114.31640625 C37.42982266 115.56917776 36.18597249 116.82795574 34.9453125 118.08984375 C30.86432912 122.2202508 26.7256142 126.18768134 22.3203125 129.96875 C19.20488587 132.69605951 16.16528252 135.5019481 13.125 138.3125 C12.55297852 138.84077393 11.98095703 139.36904785 11.39160156 139.91333008 C6.91372493 143.49423988 6.91372493 143.49423988 4.625 148.3515625 C5.12340611 151.87155566 6.42500459 152.96529146 9 155.375 C9.81726563 156.14714844 10.63453125 156.91929687 11.4765625 157.71484375 C12.30929688 158.46894531 13.14203125 159.22304687 14 160 C14.75023437 160.68191406 15.50046875 161.36382812 16.2734375 162.06640625 C21.4781404 167.16312111 21.4781404 167.16312111 28.1484375 169.02734375 C33.3362632 167.6435728 36.53752484 164.94746786 40.625 161.5625 C42.21583239 160.28346422 43.8069805 159.00482102 45.3984375 157.7265625 C46.17670898 157.09395508 46.95498047 156.46134766 47.75683594 155.80957031 C50.87663123 153.29281773 54.05804039 150.86158701 57.25 148.4375 C61.25254801 145.38264523 65.14883222 142.24158945 69 139 C71.92643237 140.32856194 74.0700763 141.79564177 76.390625 144.01171875 C77.01340332 144.60098145 77.63618164 145.19024414 78.27783203 145.79736328 C78.92864746 146.4211084 79.57946289 147.04485352 80.25 147.6875 C81.60592129 148.97095019 82.96268222 150.25351396 84.3203125 151.53515625 C84.96387695 152.14375488 85.60744141 152.75235352 86.27050781 153.37939453 C88.18476384 155.17313134 90.13657355 156.91392917 92.125 158.625 C95.56933183 161.59219495 98.91359218 164.66269379 102.25 167.75 C102.80034912 168.25837402 103.35069824 168.76674805 103.91772461 169.29052734 C106.76556497 171.92356911 109.60468178 174.56538104 112.43359375 177.21875 C113.51819052 178.22920815 114.60282447 179.2396264 115.6875 180.25 C116.19249023 180.72791992 116.69748047 181.20583984 117.21777344 181.69824219 C119.69515273 184.26147404 119.69515273 184.26147404 123 185 C123 185.66 123 186.32 123 187 C124.37957416 188.43467016 124.37957416 188.43467016 126.25 189.9375 C129.81773528 192.97133123 133.30552082 196.07754176 136.75 199.25 C137.50337646 199.94077637 137.50337646 199.94077637 138.27197266 200.64550781 C140.98358098 203.13392794 143.68188576 205.63555284 146.3671875 208.15234375 C147.18558105 208.91466309 147.18558105 208.91466309 148.02050781 209.69238281 C149.07318163 210.67329798 150.1221527 211.65820506 151.16699219 212.64746094 C153.66580025 215.2422489 153.66580025 215.2422489 157 216 C157 216.66 157 217.32 157 218 C160.04626107 220.60046676 161.92445791 222.01866013 165.99731445 221.94799805 C171.54714476 220.9532972 176.48408471 218.14442057 181.48046875 215.64453125 C182.57087967 215.10527512 183.66129059 214.56601898 184.78474426 214.01042175 C187.08260302 212.86974725 189.37786146 211.72382133 191.6706543 210.57299805 C195.17684695 208.81783281 198.69598667 207.09085178 202.21679688 205.36523438 C204.45136396 204.25169031 206.68511674 203.13651035 208.91796875 202.01953125 C209.96905319 201.50679153 211.02013763 200.99405182 212.10307312 200.46577454 C213.57028557 199.72051765 213.57028557 199.72051765 215.06713867 198.96020508 C215.92538742 198.53242264 216.78363617 198.1046402 217.66789246 197.66389465 C220.72280333 195.48429969 222.14316387 193.25872176 224 190 C224.59040887 186.80484913 224.59040887 186.80484913 224.50120544 183.38975525 C224.51595665 181.41930992 224.51595665 181.41930992 224.53100586 179.40905762 C224.52163517 177.96532941 224.51185591 176.52160382 224.50170898 175.07788086 C224.5054945 173.54817712 224.51099646 172.01847681 224.51808167 170.48878479 C224.53202217 166.34416214 224.52087709 162.19995527 224.50437045 158.05535579 C224.49050249 153.71484359 224.49698192 149.3743551 224.50050354 145.03382874 C224.503204 137.74636141 224.48974327 130.45905895 224.46655273 123.17163086 C224.43993402 114.74866648 224.43819966 106.32597755 224.4499411 97.90298551 C224.46072262 89.79567057 224.45452952 81.68845518 224.44038582 73.58114815 C224.43463026 70.13268236 224.43470528 66.68428953 224.43945122 63.23582268 C224.44422591 59.17522998 224.43409912 55.11493868 224.41249657 51.05440331 C224.40693558 49.56489325 224.40645711 48.0753542 224.41144943 46.58584213 C224.41741203 44.55164177 224.40305033 42.51741214 224.38768005 40.48326111 C224.38525016 39.34526534 224.38282026 38.20726957 224.38031673 37.03478909 C223.95000454 33.60105445 223.07435024 31.74941907 221 29 C218.65612667 27.5585179 216.48154025 26.38847579 214 25.25 C213.29939453 24.91419922 212.59878906 24.57839844 211.87695312 24.23242188 C209.59107351 23.1407485 207.29614884 22.06988331 205 21 C202.6307434 19.88030979 200.26319775 18.75705798 197.89575195 17.63354492 C196.29717788 16.87718301 194.69674185 16.12474401 193.09448242 15.3762207 C189.19035317 13.54691868 185.32910746 11.67205056 181.51953125 9.65234375 C180.80925781 9.27980469 180.09898437 8.90726563 179.3671875 8.5234375 C178.04592798 7.82512924 176.73139408 7.1138613 175.42578125 6.38671875 C165.41105236 1.1203527 159.15982436 4.77219727 151.5 11.9375 Z " fill="#F8F9F9" transform="translate(0,0)"/>
<path d="M0 0 C3.15283244 1.04905396 6.04659832 2.48640078 9 4 C9.82669189 4.40790771 10.65338379 4.81581543 11.50512695 5.23608398 C14.01089895 6.47635341 16.50563321 7.73698494 19 9 C20.40939715 9.70074759 21.81950847 10.40006138 23.23046875 11.09765625 C25.84564997 12.39264473 28.45253814 13.70247776 31.0546875 15.0234375 C33.83161303 16.42800447 36.62924 17.77728698 39.4453125 19.1015625 C40.17596924 19.45081787 40.90662598 19.80007324 41.65942383 20.15991211 C43.05485724 20.82590363 44.45551946 21.48109066 45.86206055 22.12329102 C50.06384275 24.1491599 52.00766081 25.80703943 54 30 C54.38031673 33.03478909 54.38031673 33.03478909 54.38768005 36.48326111 C54.39758469 37.7940715 54.40748932 39.1048819 54.41769409 40.45541382 C54.41345628 41.90118502 54.40889845 43.34695532 54.40405273 44.79272461 C54.40975718 46.32065836 54.41672173 47.84858785 54.42485046 49.37651062 C54.44278905 53.52117481 54.44161219 57.66562736 54.43590808 61.81031871 C54.43281719 65.2720818 54.43890757 68.73380417 54.44494683 72.19556147 C54.45899278 80.36307479 54.45743023 88.53048351 54.44604492 96.69799805 C54.43456367 105.12039116 54.44863923 113.54246584 54.4754414 121.96481699 C54.49760189 129.19979403 54.50423499 136.43467114 54.49836498 143.6696797 C54.49499502 147.98915803 54.497413 152.30843225 54.51461601 156.627882 C54.53008871 160.69014992 54.52612632 164.75194633 54.50731087 168.81419563 C54.50362583 170.30329422 54.50673104 171.79242777 54.51719666 173.28149414 C54.53041189 175.31754527 54.51644768 177.35371829 54.50120544 179.38975525 C54.50089152 181.09731444 54.50089152 181.09731444 54.50057125 182.83936977 C53.88242596 186.742368 52.42572515 188.91622432 50 192 C47.59196472 193.71531677 47.59196472 193.71531677 44.88354492 195.08374023 C43.86536179 195.60705429 42.84717865 196.13036835 41.79814148 196.66954041 C40.70330948 197.21042801 39.60847748 197.75131561 38.48046875 198.30859375 C37.34853592 198.87957291 36.21660309 199.45055206 35.05036926 200.03883362 C32.65913721 201.23935475 30.26570339 202.43280726 27.8659668 203.6159668 C24.80106541 205.12841639 21.75254742 206.67102116 18.70754528 208.22306728 C15.78629012 209.70634304 12.85154202 211.16237114 9.91796875 212.62109375 C8.82920944 213.17615097 7.74045013 213.73120819 6.61869812 214.30308533 C0.92758781 217.07902245 -2.80024926 218.88162572 -9 217 C-9 216.34 -9 215.68 -9 215 C-7.02 214.67 -5.04 214.34 -3 214 C-0.38989024 206.16967072 -0.92554847 197.03047771 -0.56347656 188.84375 C-0.43863679 186.38059023 -0.28115628 183.91885104 -0.08984375 181.45996094 C1.41051328 168.03213339 1.41051328 168.03213339 -2.59542847 155.63769531 C-6.49991768 151.63594124 -10.96620025 148.83837483 -15.86643982 146.20544434 C-19.1229387 144.36554867 -21.90204349 142.09524688 -24.8125 139.75 C-29.82898055 135.88637523 -34.88598295 132.08062569 -39.95703125 128.2890625 C-48.37728484 121.95495646 -56.69345948 115.48210656 -65 109 C-56.44423892 100.27825413 -46.61505948 93.16289691 -36.84423828 85.87939453 C-28.88151024 79.9366833 -20.95502491 73.93214848 -13.22149658 67.69236755 C-11 66 -11 66 -8.66169739 64.58233643 C-5.09394394 62.28188659 -2.4580384 60.52621462 -1.20472717 56.35009766 C-0.94217042 53.14036163 -0.96078736 50.04617999 -1.0859375 46.828125 C-1.09630035 45.66875427 -1.10666321 44.50938354 -1.11734009 43.31488037 C-1.16094658 39.62452169 -1.26767493 35.93899833 -1.375 32.25 C-1.4115874 29.75396214 -1.44418313 27.25786236 -1.47265625 24.76171875 C-1.5392345 20.20527705 -1.61653756 15.64991614 -1.74365234 11.09472656 C-1.76857758 10.18096252 -1.79350281 9.26719849 -1.81918335 8.32574463 C-1.91790491 5.84338158 -1.91790491 5.84338158 -3 3 C-5.64 2.67 -8.28 2.34 -11 2 C-7.2455281 -0.50298127 -4.3448834 -0.61527195 0 0 Z " fill="#3C99D3" transform="translate(170,4)"/>
<path d="M0 0 C3.80878836 0.80570523 4.84026405 1.69746601 7.25 4.6875 C7.81176758 7.11331177 7.81176758 7.11331177 7.89453125 9.84814453 C7.93296143 10.87666534 7.9713916 11.90518616 8.01098633 12.96487427 C8.02798584 14.07216888 8.04498535 15.1794635 8.0625 16.3203125 C8.08530029 17.46732635 8.10810059 18.61434021 8.1315918 19.79611206 C8.16937408 22.22525299 8.19552098 24.65459855 8.2109375 27.08398438 C8.24967046 30.78104505 8.37364283 34.46910232 8.5 38.1640625 C8.83113041 56.47111084 8.83113041 56.47111084 4.77807617 61.39233398 C1.93227193 64.06156645 -1.30567876 65.87003875 -4.75 67.6875 C-6.12944137 68.70739154 -7.49139505 69.75193022 -8.82421875 70.83203125 C-10.02633536 71.72447481 -11.23076483 72.61381149 -12.4375 73.5 C-13.80262207 74.51359775 -15.16718581 75.5279478 -16.53125 76.54296875 C-17.2221875 77.05649902 -17.913125 77.5700293 -18.625 78.09912109 C-22.25045054 80.8090454 -25.84442228 83.55987277 -29.4375 86.3125 C-30.14382568 86.85358398 -30.85015137 87.39466797 -31.57788086 87.95214844 C-33.63585881 89.52981223 -35.69300756 91.1085516 -37.75 92.6875 C-38.38695801 93.17589355 -39.02391602 93.66428711 -39.68017578 94.16748047 C-46.66193994 99.42470402 -46.66193994 99.42470402 -53.359375 105.02734375 C-55.75 106.6875 -55.75 106.6875 -57.6574707 106.46899414 C-60.0488097 105.57590394 -61.63402931 104.4446254 -63.62109375 102.84375 C-64.35473145 102.26061035 -65.08836914 101.6774707 -65.84423828 101.07666016 C-66.61751465 100.4532373 -67.39079102 99.82981445 -68.1875 99.1875 C-75.51963523 93.37030564 -82.96671647 87.88552328 -90.75 82.6875 C-87.55891364 75.24723022 -80.07621497 69.87239244 -74.046875 64.69921875 C-71.06176052 62.08470522 -68.15790655 59.38728435 -65.25 56.6875 C-61.66856765 53.36298092 -58.07713269 50.0657486 -54.375 46.875 C-51.26946648 44.19176706 -48.38985713 41.34528747 -45.51171875 38.421875 C-43.11495007 36.06230672 -40.58037002 33.88452461 -38.03515625 31.6875 C-35.31962847 29.31083295 -32.65666062 26.87942492 -30 24.4375 C-29.23925171 23.73850586 -29.23925171 23.73850586 -28.46313477 23.02539062 C-26.89143999 21.58013139 -25.3205729 20.13397825 -23.75 18.6875 C-22.69801919 17.71863867 -21.64593638 16.74988808 -20.59375 15.78125 C-20.07997803 15.30824463 -19.56620605 14.83523926 -19.03686523 14.34790039 C-17.53028874 12.96529635 -16.01747128 11.58978835 -14.50390625 10.21484375 C-12.79927422 8.65045095 -11.11490179 7.06325817 -9.46484375 5.44140625 C-6.20407748 2.31886129 -4.53379139 0.83119509 0 0 Z " fill="#0A75B8" transform="translate(161.75,5.3125)"/>
<path d="M0 0 C0 32.01 0 64.02 0 97 C-7.83235867 92.52436647 -7.83235867 92.52436647 -11.625 89.375 C-15.49813545 86.21193939 -19.40831106 83.10719543 -23.375 80.0625 C-24.19991943 79.42900635 -24.19991943 79.42900635 -25.04150391 78.78271484 C-29.65376633 75.24965977 -34.30393911 71.76812479 -38.95703125 68.2890625 C-47.37728484 61.95495646 -55.69345948 55.48210656 -64 49 C-55.44514775 40.2791806 -45.61729832 33.16301587 -35.84643555 25.8815918 C-29.19431888 20.91811324 -22.6210226 15.86196944 -16.08764648 10.7434082 C-14.06210268 9.15748402 -12.03225676 7.57731061 -10 6 C-9.26716797 5.42781738 -8.53433594 4.85563477 -7.77929688 4.26611328 C-7.06322266 3.71552246 -6.34714844 3.16493164 -5.609375 2.59765625 C-4.64209473 1.84947632 -4.64209473 1.84947632 -3.65527344 1.08618164 C-2 0 -2 0 0 0 Z " fill="#FAFAFB" transform="translate(169,64)"/>
<path d="M0 0 C4.79931472 3.3254135 8.69711236 6.64477302 12.34765625 11.1953125 C14.97668585 14.0667349 18.09362956 16.2490365 21.2421875 18.51953125 C21.82226562 19.00808594 22.40234375 19.49664062 23 20 C23 20.66 23 21.32 23 22 C24.32 22.66 25.64 23.32 27 24 C27 24.99 27 25.98 27 27 C24.9375 29.05859375 24.9375 29.05859375 22 31.4375 C21.46963135 31.86853027 20.9392627 32.29956055 20.39282227 32.74365234 C14.65833675 37.35987616 8.77142 41.78052375 2.84375 46.14453125 C0.44851134 47.90841624 -1.9040993 49.70598585 -4.21875 51.57421875 C-10.95774997 56.87840416 -10.95774997 56.87840416 -15.75 57.4375 C-19.44824887 55.80173608 -21.4719118 53.93431346 -24.16796875 50.9765625 C-26.66166253 48.28613808 -29.41944485 45.96095521 -32.203125 43.578125 C-32.79609375 43.05734375 -33.3890625 42.5365625 -34 42 C-34.57234375 41.54109375 -35.1446875 41.0821875 -35.734375 40.609375 C-37 39 -37 39 -37.46875 36.6171875 C-36.81644417 32.97514659 -35.17243946 31.64449865 -32.5 29.125 C-31.57832031 28.2484375 -30.65664063 27.371875 -29.70703125 26.46875 C-26.92682871 23.93326948 -24.12880074 21.43018597 -21.26953125 18.984375 C-17.68769862 15.8525833 -14.21927074 12.59815857 -10.74291992 9.35009766 C-7.25622708 6.10738255 -3.6825111 3.01899559 0 0 Z " fill="#0B75B8" transform="translate(42,112)"/>
<path d="M0 0 C9.24 0 18.48 0 28 0 C28 2.97 28 5.94 28 9 C27 10 27 10 25.15234375 10.09765625 C23.1015625 10.06510417 21.05078125 10.03255208 19 10 C19 12.97 19 15.94 19 19 C16.03 19 13.06 19 10 19 C10.020625 20.299375 10.04125 21.59875 10.0625 22.9375 C10.08399454 24.29165633 10.07148199 25.64756083 10 27 C9.67 27.33 9.34 27.66 9 28 C6.03 28 3.06 28 0 28 C0 18.76 0 9.52 0 0 Z " fill="#FDFDFD" transform="translate(0,0)"/>
<path d="M0 0 C2.97 0 5.94 0 9 0 C9.93446394 3.46301344 10.46529269 5.51559226 10 9 C7.49298315 12.56540369 4.33069185 15.21583034 1 18 C-0.27132773 19.12444126 -1.54219012 20.24940897 -2.8125 21.375 C-3.44929688 21.9215625 -4.08609375 22.468125 -4.7421875 23.03125 C-7.68541745 25.59766504 -10.56173434 28.23346152 -13.4375 30.875 C-13.97028564 31.36403809 -14.50307129 31.85307617 -15.05200195 32.35693359 C-17.55869056 34.64408772 -17.55869056 34.64408772 -20 37 C-23.00331018 37.14193337 -25.99217134 37.04236378 -29 37 C-29 34.03 -29 31.06 -29 28 C-25.7 28 -22.4 28 -19 28 C-19 25.03 -19 22.06 -19 19 C-16.03 19 -13.06 19 -10 19 C-10 15.7 -10 12.4 -10 9 C-6.7 9 -3.4 9 0 9 C0 6.03 0 3.06 0 0 Z " fill="#EDEEEF" transform="translate(104,38)"/>
<path d="M0 0 C9.24 0 18.48 0 28 0 C28 2.97 28 5.94 28 9 C25.36 9.33 22.72 9.66 20 10 C19.855625 11.299375 19.71125 12.59875 19.5625 13.9375 C19.125 17.875 19.125 17.875 18 19 C14.99668982 19.14193337 12.00782866 19.04236378 9 19 C9 15.7 9 12.4 9 9 C6.36 9.33 3.72 9.66 1 10 C0.67 12.97 0.34 15.94 0 19 C-3.3 19 -6.6 19 -10 19 C-10 15.7 -10 12.4 -10 9 C-6.7 9 -3.4 9 0 9 C0 6.03 0 3.06 0 0 Z " fill="#FDFDFD" transform="translate(85,19)"/>
<path d="M0 0 C4.38462134 0.50109958 6.8000997 1.98295115 10 5 C10 5.66 10 6.32 10 7 C10.58031982 7.25813477 11.16063965 7.51626953 11.75854492 7.78222656 C14.18670052 9.10143364 15.87331948 10.57151278 17.86328125 12.484375 C18.58580078 13.17273438 19.30832031 13.86109375 20.05273438 14.5703125 C20.79845703 15.28960937 21.54417969 16.00890625 22.3125 16.75 C23.78629923 18.16298399 25.26154275 19.57446318 26.73828125 20.984375 C27.44992432 21.66612793 28.16156738 22.34788086 28.89477539 23.05029297 C31.40856324 25.37838178 34.03422717 27.53638203 36.73144531 29.64794922 C38 31 38 31 38.4375 34.375 C38.293125 35.24125 38.14875 36.1075 38 37 C34.7 37 31.4 37 28 37 C28 34.03 28 31.06 28 28 C25.03 28 22.06 28 19 28 C19 25.03 19 22.06 19 19 C16.03 18.67 13.06 18.34 10 18 C10 15.03 10 12.06 10 9 C6.7 9 3.4 9 0 9 C0 6.03 0 3.06 0 0 Z " fill="#EDEEEF" transform="translate(113,180)"/>
<path d="M0 0 C3.3 0 6.6 0 10 0 C10 2.97 10 5.94 10 9 C6.7 9 3.4 9 0 9 C0 6.03 0 3.06 0 0 Z M-9 9 C-6.03 9 -3.06 9 0 9 C0.33 11.97 0.66 14.94 1 18 C3.97 18.33 6.94 18.66 10 19 C10 21.97 10 24.94 10 28 C6.7 28 3.4 28 0 28 C0 25.03 0 22.06 0 19 C-2.97 19 -5.94 19 -9 19 C-9 15.7 -9 12.4 -9 9 Z " fill="#FEFEFE" transform="translate(75,38)"/>
<path d="M0 0 C2.97 0 5.94 0 9 0 C9 2.97 9 5.94 9 9 C6.36 9.33 3.72 9.66 1 10 C0.67 12.97 0.34 15.94 0 19 C-2.97 19.33 -5.94 19.66 -9 20 C-9.33 22.64 -9.66 25.28 -10 28 C-12.97 28 -15.94 28 -19 28 C-19 25.03 -19 22.06 -19 19 C-16.03 19 -13.06 19 -10 19 C-10 15.7 -10 12.4 -10 9 C-6.7 9 -3.4 9 0 9 C0 6.03 0 3.06 0 0 Z " fill="#EEEEEE" transform="translate(19,104)"/>
<path d="M0 0 C2.97 0 5.94 0 9 0 C9.33 2.64 9.66 5.28 10 8 C12.97 8.33 15.94 8.66 19 9 C19 10.98 19 12.96 19 15 C9.76 15 0.52 15 -9 15 C-9 13.02 -9 11.04 -9 9 C-6.03 9 -3.06 9 0 9 C0 6.03 0 3.06 0 0 Z " fill="#FDFDFD" transform="translate(47,208)"/>
<path d="M0 0 C2.97 0 5.94 0 9 0 C9 2.97 9 5.94 9 9 C11.97 9 14.94 9 18 9 C18 10.98 18 12.96 18 15 C8.76 15 -0.48 15 -10 15 C-10 13.02 -10 11.04 -10 9 C-6.7 9 -3.4 9 0 9 C0 6.03 0 3.06 0 0 Z " fill="#EFEFEF" transform="translate(85,208)"/>
<path d="M0 0 C0.66 0.33 1.32 0.66 2 1 C1.67 1.33 1.34 1.66 1 2 C0.78916247 4.67060873 0.62408803 7.3252135 0.5 10 C0.13513514 17.86486486 0.13513514 17.86486486 -1 19 C-3.65463121 19.45459858 -6.32189138 19.70243238 -9 20 C-9.33 22.64 -9.66 25.28 -10 28 C-12.97 28 -15.94 28 -19 28 C-19 24.7 -19 21.4 -19 18 C-16.03 18 -13.06 18 -10 18 C-10.391875 16.700625 -10.78375 15.40125 -11.1875 14.0625 C-11.5078125 11.6015625 -11.5078125 11.6015625 -11 9 C-7.72797278 5.42758996 -4.00211116 2.70862883 0 0 Z " fill="#FCFCFC" transform="translate(151,76)"/>
<path d="M0 0 C3.3 0 6.6 0 10 0 C10 3.3 10 6.6 10 10 C7.03 10 4.06 10 1 10 C1.020625 11.299375 1.04125 12.59875 1.0625 13.9375 C1.08399454 15.29165633 1.07148199 16.64756083 1 18 C0 19 0 19 -2.06640625 19.09765625 C-5.53320312 19.04882812 -5.53320312 19.04882812 -9 19 C-9 16.03 -9 13.06 -9 10 C-6.03 10 -3.06 10 0 10 C0 6.7 0 3.4 0 0 Z " fill="#FDFDFD" transform="translate(9,28)"/>
<path d="M0 0 C3.3 0 6.6 0 10 0 C10.09765625 6.93359375 10.09765625 6.93359375 10 9 C9 10 9 10 6.93359375 10.09765625 C3.46679688 10.04882812 3.46679688 10.04882812 0 10 C0 12.97 0 15.94 0 19 C-6.15234375 19.09765625 -6.15234375 19.09765625 -8 19 C-9 18 -9 18 -9.1328125 16.1875 C-9.13023437 15.465625 -9.12765625 14.74375 -9.125 14 C-9.12757813 13.278125 -9.13015625 12.55625 -9.1328125 11.8125 C-9 10 -9 10 -8 9 C-5.32941149 8.85884839 -2.67567762 8.95752893 0 9 C0 6.03 0 3.06 0 0 Z " fill="#FDFDFD" transform="translate(207,0)"/>
<path d="M0 0 C2.97 0 5.94 0 9 0 C9 2.97 9 5.94 9 9 C6.36 9.33 3.72 9.66 1 10 C0.67 12.97 0.34 15.94 0 19 C-3.3 19 -6.6 19 -10 19 C-10 15.7 -10 12.4 -10 9 C-6.7 9 -3.4 9 0 9 C0 6.03 0 3.06 0 0 Z " fill="#EEEEEE" transform="translate(151,104)"/>
<path d="M0 0 C2.97 0 5.94 0 9 0 C9 2.97 9 5.94 9 9 C6.36 9.33 3.72 9.66 1 10 C0.67 12.97 0.34 15.94 0 19 C-3.3 19 -6.6 19 -10 19 C-10 15.7 -10 12.4 -10 9 C-6.7 9 -3.4 9 0 9 C0 6.03 0 3.06 0 0 Z " fill="#EEEEEE" transform="translate(85,19)"/>
<path d="M0 0 C2.97 0 5.94 0 9 0 C9 2.97 9 5.94 9 9 C6.36 9.33 3.72 9.66 1 10 C0.67 12.97 0.34 15.94 0 19 C-3.3 19 -6.6 19 -10 19 C-10 15.7 -10 12.4 -10 9 C-7.03 9 -4.06 9 -1 9 C-0.67 6.03 -0.34 3.06 0 0 Z " fill="#FEFEFE" transform="translate(38,170)"/>
<path d="M0 0 C2.97 0 5.94 0 9 0 C9 2.97 9 5.94 9 9 C6.36 9.33 3.72 9.66 1 10 C0.67 12.64 0.34 15.28 0 18 C-2.31 18.66 -4.62 19.32 -7 20 C-9.0625 18.4375 -9.0625 18.4375 -11 16 C-10.75 12.25 -10.75 12.25 -10 9 C-6.7 9 -3.4 9 0 9 C0 6.03 0 3.06 0 0 Z " fill="#EDEEEE" transform="translate(151,123)"/>
<path d="M0 0 C2.05078125 0.03255208 4.1015625 0.06510417 6.15234375 0.09765625 C6.15234375 3.39765625 6.15234375 6.69765625 6.15234375 10.09765625 C3.18234375 10.09765625 0.21234375 10.09765625 -2.84765625 10.09765625 C-2.84765625 13.06765625 -2.84765625 16.03765625 -2.84765625 19.09765625 C-6.14765625 19.09765625 -9.44765625 19.09765625 -12.84765625 19.09765625 C-12.84765625 16.12765625 -12.84765625 13.15765625 -12.84765625 10.09765625 C-8.39265625 9.60265625 -8.39265625 9.60265625 -3.84765625 9.09765625 C-3.70328125 7.79828125 -3.55890625 6.49890625 -3.41015625 5.16015625 C-2.85356362 0.1508226 -2.85356362 0.1508226 0 0 Z " fill="#FEFEFE" transform="translate(106.84765625,27.90234375)"/>
<path d="M0 0 C3.3 0 6.6 0 10 0 C10 2.97 10 5.94 10 9 C6.7 9 3.4 9 0 9 C0 6.03 0 3.06 0 0 Z M-9 9 C-6.03 9 -3.06 9 0 9 C0 12.3 0 15.6 0 19 C-2.97 19 -5.94 19 -9 19 C-9 15.7 -9 12.4 -9 9 Z " fill="#FEFEFE" transform="translate(75,19)"/>
<path d="M0 0 C2.97 0 5.94 0 9 0 C9.09765625 6.93359375 9.09765625 6.93359375 9 9 C8 10 8 10 6.15234375 10.09765625 C4.1015625 10.06510417 2.05078125 10.03255208 0 10 C0 12.97 0 15.94 0 19 C-3.3 19 -6.6 19 -10 19 C-10.09765625 12.84765625 -10.09765625 12.84765625 -10 11 C-7.95301586 8.95301586 -3.69588759 9.29954307 -1 9 C-0.67 6.03 -0.34 3.06 0 0 Z " fill="#FEFEFE" transform="translate(19,170)"/>
<path d="M0 0 C3.3 0 6.6 0 10 0 C10 2.97 10 5.94 10 9 C6.7 9 3.4 9 0 9 C0 6.03 0 3.06 0 0 Z M-6.15234375 8.90234375 C-4.1015625 8.93489583 -2.05078125 8.96744792 0 9 C0 12.3 0 15.6 0 19 C-2.97 19 -5.94 19 -9 19 C-9.09765625 12.06640625 -9.09765625 12.06640625 -9 10 C-8 9 -8 9 -6.15234375 8.90234375 Z " fill="#FEFEFE" transform="translate(141,104)"/>
<path d="M0 0 C3.46679688 0.04882812 3.46679688 0.04882812 6.93359375 0.09765625 C6.93359375 3.06765625 6.93359375 6.03765625 6.93359375 9.09765625 C3.63359375 9.09765625 0.33359375 9.09765625 -3.06640625 9.09765625 C-3.1640625 2.9453125 -3.1640625 2.9453125 -3.06640625 1.09765625 C-2.06640625 0.09765625 -2.06640625 0.09765625 0 0 Z M-12.06640625 9.09765625 C-9.09640625 9.09765625 -6.12640625 9.09765625 -3.06640625 9.09765625 C-3.06640625 12.39765625 -3.06640625 15.69765625 -3.06640625 19.09765625 C-6.03640625 19.09765625 -9.00640625 19.09765625 -12.06640625 19.09765625 C-12.06640625 15.79765625 -12.06640625 12.49765625 -12.06640625 9.09765625 Z " fill="#FEFEFE" transform="translate(12.06640625,103.90234375)"/>
<path d="M0 0 C3.3 0 6.6 0 10 0 C10 2.97 10 5.94 10 9 C6.7 9 3.4 9 0 9 C0 6.03 0 3.06 0 0 Z M-6.15234375 8.90234375 C-4.1015625 8.93489583 -2.05078125 8.96744792 0 9 C0 12.3 0 15.6 0 19 C-2.97 19 -5.94 19 -9 19 C-9.09765625 12.06640625 -9.09765625 12.06640625 -9 10 C-8 9 -8 9 -6.15234375 8.90234375 Z " fill="#FEFEFE" transform="translate(56,0)"/>
<path d="M0 0 C2.97 0 5.94 0 9 0 C9 2.97 9 5.94 9 9 C6.36 9.33 3.72 9.66 1 10 C0.67 12.97 0.34 15.94 0 19 C-8.625 20 -8.625 20 -12 20 C-11.34 19.34 -10.68 18.68 -10 18 C-9.57862715 16.06008596 -9.57862715 16.06008596 -9.4375 13.9375 C-9 10 -9 10 -8 9 C-5.32941149 8.85884839 -2.67567762 8.95752893 0 9 C0 6.03 0 3.06 0 0 Z " fill="#EEEEEE" transform="translate(132,104)"/>
<path d="M0 0 C3.3 0 6.6 0 10 0 C10 2.97 10 5.94 10 9 C6.7169902 10.6415049 3.57454967 9.51888624 0 9 C0 6.03 0 3.06 0 0 Z M0 9 C0 12.3 0 15.6 0 19 C-2.97 19 -5.94 19 -9 19 C-9 16.03 -9 13.06 -9 10 C-1.125 9 -1.125 9 0 9 Z " fill="#EEEEEE" transform="translate(28,170)"/>
<path d="M0 0 C3.3 0 6.6 0 10 0 C10 2.97 10 5.94 10 9 C6.7 9 3.4 9 0 9 C0 6.03 0 3.06 0 0 Z M0 9 C0 12.3 0 15.6 0 19 C-2.97 19 -5.94 19 -9 19 C-9 16.03 -9 13.06 -9 10 C-1.125 9 -1.125 9 0 9 Z " fill="#EEEEEE" transform="translate(28,189)"/>
<path d="M0 0 C2.97 0 5.94 0 9 0 C9 2.97 9 5.94 9 9 C6.36 9.33 3.72 9.66 1 10 C0.67 12.97 0.34 15.94 0 19 C-3.3 19 -6.6 19 -10 19 C-10.09765625 12.84765625 -10.09765625 12.84765625 -10 11 C-7.95301586 8.95301586 -3.69588759 9.29954307 -1 9 C-0.67 6.03 -0.34 3.06 0 0 Z " fill="#EEEEEE" transform="translate(85,170)"/>
<path d="M0 0 C2.97 0 5.94 0 9 0 C9 2.97 9 5.94 9 9 C6.36 9.33 3.72 9.66 1 10 C0.67 12.97 0.34 15.94 0 19 C-3.3 19 -6.6 19 -10 19 C-10.09765625 12.84765625 -10.09765625 12.84765625 -10 11 C-7.95301586 8.95301586 -3.69588759 9.29954307 -1 9 C-0.67 6.03 -0.34 3.06 0 0 Z " fill="#EEEEEE" transform="translate(151,85)"/>
<path d="M0 0 C2.97 0 5.94 0 9 0 C9 2.97 9 5.94 9 9 C5.7 9 2.4 9 -1 9 C-0.67 6.03 -0.34 3.06 0 0 Z M-10 9 C-7.03 9 -4.06 9 -1 9 C-1 12.3 -1 15.6 -1 19 C-3.97 19 -6.94 19 -10 19 C-10 15.7 -10 12.4 -10 9 Z " fill="#EEEEEE" transform="translate(123,19)"/>
<path d="M0 0 C2.97 0 5.94 0 9 0 C9 2.97 9 5.94 9 9 C5.7 9 2.4 9 -1 9 C-0.67 6.03 -0.34 3.06 0 0 Z M-10 9 C-7.03 9 -4.06 9 -1 9 C-1 12.3 -1 15.6 -1 19 C-3.97 19 -6.94 19 -10 19 C-10 15.7 -10 12.4 -10 9 Z " fill="#FEFEFE" transform="translate(57,19)"/>
<path d="M0 0 C3.3 0 6.6 0 10 0 C10 2.97 10 5.94 10 9 C6.7 9 3.4 9 0 9 C0 6.03 0 3.06 0 0 Z M0 9 C0 12.3 0 15.6 0 19 C-2.97 19 -5.94 19 -9 19 C-9 16.03 -9 13.06 -9 10 C-1.125 9 -1.125 9 0 9 Z " fill="#EEEEEE" transform="translate(141,0)"/>
<path d="M0 0 C2.97 0 5.94 0 9 0 C9 2.97 9 5.94 9 9 C5.7 9 2.4 9 -1 9 C-0.67 6.03 -0.34 3.06 0 0 Z M-7.15234375 8.90234375 C-5.1015625 8.93489583 -3.05078125 8.96744792 -1 9 C-1 12.3 -1 15.6 -1 19 C-3.97 19 -6.94 19 -10 19 C-10.09765625 12.06640625 -10.09765625 12.06640625 -10 10 C-9 9 -9 9 -7.15234375 8.90234375 Z " fill="#FEFEFE" transform="translate(57,189)"/>
<path d="M0 0 C2.97 0 5.94 0 9 0 C9.33 2.64 9.66 5.28 10 8 C8.989375 8.350625 7.97875 8.70125 6.9375 9.0625 C2.92306216 10.74126491 0.57196286 13.34157481 -2.35546875 16.48046875 C-4.44353663 18.40982363 -6.17431726 18.91437325 -9 19 C-9 16.03 -9 13.06 -9 10 C-6.03 10 -3.06 10 0 10 C0 6.7 0 3.4 0 0 Z " fill="#ECEEEF" transform="translate(19,47)"/>
<path d="M0 0 C3.3 0 6.6 0 10 0 C10 2.97 10 5.94 10 9 C12.97 9 15.94 9 19 9 C19 10.98 19 12.96 19 15 C15.7 15 12.4 15 9 15 C9 13.02 9 11.04 9 9 C6.03 9 3.06 9 0 9 C0 6.03 0 3.06 0 0 Z " fill="#FEFEFE" transform="translate(94,208)"/>
<path d="M0 0 C2.97 0 5.94 0 9 0 C9 2.97 9 5.94 9 9 C11.97 9 14.94 9 18 9 C18 12.3 18 15.6 18 19 C10.98075555 15.33778551 4.60548339 10.60548339 -1 5 C-0.625 2.375 -0.625 2.375 0 0 Z " fill="#ECEEEF" transform="translate(151,142)"/>
<path d="M0 0 C3.3 0 6.6 0 10 0 C10 2.97 10 5.94 10 9 C6.7 9 3.4 9 0 9 C0 6.03 0 3.06 0 0 Z M-9 9 C-6.03 9 -3.06 9 0 9 C0 10.98 0 12.96 0 15 C-2.97 15 -5.94 15 -9 15 C-9 13.02 -9 11.04 -9 9 Z " fill="#FEFEFE" transform="translate(75,208)"/>
<path d="M0 0 C2.97 0 5.94 0 9 0 C9 2.97 9 5.94 9 9 C6.36 9.33 3.72 9.66 1 10 C0.67 12.64 0.34 15.28 0 18 C-3.96 16.35 -7.92 14.7 -12 13 C-8.09618178 9.09618178 -6.33820964 9.43755817 -1 9 C-0.67 6.03 -0.34 3.06 0 0 Z " fill="#ECEDEE" transform="translate(198,0)"/>
<path d="M0 0 C0 2.64 0 5.28 0 8 C-2.97 8 -5.94 8 -9 8 C-9 11.3 -9 14.6 -9 18 C-11.97 18 -14.94 18 -18 18 C-18 16.68 -18 15.36 -18 14 C-18.66 13.67 -19.32 13.34 -20 13 C-17.23821729 10.82159208 -14.46417321 8.65938531 -11.6875 6.5 C-10.50897461 5.56994141 -10.50897461 5.56994141 -9.30664062 4.62109375 C-8.54931641 4.03457031 -7.79199219 3.44804688 -7.01171875 2.84375 C-6.31522217 2.29912109 -5.61872559 1.75449219 -4.90112305 1.19335938 C-3 0 -3 0 0 0 Z " fill="#EBEDEF" transform="translate(141,86)"/>
<path d="M0 0 C0.66 0 1.32 0 2 0 C0.49544569 3.65039407 -1.60331053 5.67518099 -4.5625 8.25 C-5.44808594 9.02730469 -6.33367188 9.80460937 -7.24609375 10.60546875 C-8.60927734 11.79076172 -8.60927734 11.79076172 -10 13 C-11.70989878 14.51907307 -13.41835497 16.03977234 -15.125 17.5625 C-16.4163804 18.70865596 -17.70793358 19.85461745 -19 21 C-19.66 20.67 -20.32 20.34 -21 20 C-21 17.36 -21 14.72 -21 12 C-18.03 12 -15.06 12 -12 12 C-12 8.7 -12 5.4 -12 2 C-8.04 2 -4.08 2 0 2 C0 1.34 0 0.68 0 0 Z " fill="#E9ECEF" transform="translate(40,111)"/>
<path d="M0 0 C2.97 0 5.94 0 9 0 C9 2.97 9 5.94 9 9 C5.7 9 2.4 9 -1 9 C-0.67 6.03 -0.34 3.06 0 0 Z M-10 9 C-7.03 9 -4.06 9 -1 9 C-1 10.98 -1 12.96 -1 15 C-3.97 15 -6.94 15 -10 15 C-10 13.02 -10 11.04 -10 9 Z " fill="#EEEEEE" transform="translate(123,208)"/>
<path d="M0 0 C2.97 0 5.94 0 9 0 C9 2.97 9 5.94 9 9 C5.7 9 2.4 9 -1 9 C-0.67 6.03 -0.34 3.06 0 0 Z M-10 9 C-7.03 9 -4.06 9 -1 9 C-1 10.98 -1 12.96 -1 15 C-3.97 15 -6.94 15 -10 15 C-10 13.02 -10 11.04 -10 9 Z " fill="#EEEEEE" transform="translate(10,208)"/>
<path d="M0 0 C3.3 0 6.6 0 10 0 C10.09765625 6.93359375 10.09765625 6.93359375 10 9 C8.14173417 10.85826583 5.48736615 10.46792875 2.99609375 10.734375 C0.92656171 10.94601107 0.92656171 10.94601107 -1.25 11.75 C-3 12 -3 12 -5.25 10.5625 C-5.8275 10.046875 -6.405 9.53125 -7 9 C-4.69 9 -2.38 9 0 9 C0 6.03 0 3.06 0 0 Z " fill="#FDFDFD" transform="translate(188,0)"/>
<path d="M0 0 C2.05078125 0.03255208 4.1015625 0.06510417 6.15234375 0.09765625 C6.15234375 3.39765625 6.15234375 6.69765625 6.15234375 10.09765625 C3.18234375 10.09765625 0.21234375 10.09765625 -2.84765625 10.09765625 C-2.84765625 11.74765625 -2.84765625 13.39765625 -2.84765625 15.09765625 C-6.00881401 13.72782122 -6.84036545 13.10859245 -8.84765625 10.09765625 C-7.19765625 9.76765625 -5.54765625 9.43765625 -3.84765625 9.09765625 C-3.70328125 7.79828125 -3.55890625 6.49890625 -3.41015625 5.16015625 C-2.85356362 0.1508226 -2.85356362 0.1508226 0 0 Z " fill="#FCFDFD" transform="translate(153.84765625,131.90234375)"/>
<path d="M0 0 C6.36 0.48 6.36 0.48 9 2.625 C11.05104115 4.32824741 11.05104115 4.32824741 14.3125 3.875 C17.10735341 3.21181444 19.24315114 2.53120699 21.8125 1.375 C22.864375 0.92125 23.91625 0.4675 25 0 C25.66 0.33 26.32 0.66 27 1 C27 2.65 27 4.3 27 6 C17.76 6 8.52 6 -1 6 C-1 1 -1 1 0 0 Z " fill="#EDEFF0" transform="translate(152,217)"/>
<path d="M0 0 C3.3 0 6.6 0 10 0 C10 3.3 10 6.6 10 10 C6.7 10 3.4 10 0 10 C0 6.7 0 3.4 0 0 Z " fill="#FDFDFD" transform="translate(28,28)"/>
<path d="M0 0 C3.3 0 6.6 0 10 0 C10 3.3 10 6.6 10 10 C3.06640625 10.09765625 3.06640625 10.09765625 1 10 C0 9 0 9 -0.09765625 6.93359375 C-0.06510417 4.62239583 -0.03255208 2.31119792 0 0 Z " fill="#EFEFEF" transform="translate(75,47)"/>
<path d="M0 0 C2.97 0 5.94 0 9 0 C9.87890625 6.93359375 9.87890625 6.93359375 10 9 C9 10 9 10 6.93359375 10.09765625 C3.46679688 10.04882812 3.46679688 10.04882812 0 10 C0 6.7 0 3.4 0 0 Z " fill="#EFEFEF" transform="translate(94,28)"/>
<path d="M0 0 C3.3 0 6.6 0 10 0 C10 2.97 10 5.94 10 9 C6.7 9 3.4 9 0 9 C0 6.03 0 3.06 0 0 Z " fill="#EEEEEE" transform="translate(28,208)"/>
<path d="M0 0 C2.97 0 5.94 0 9 0 C9 3.3 9 6.6 9 10 C6.03 10 3.06 10 0 10 C0 6.7 0 3.4 0 0 Z " fill="#FEFEFE" transform="translate(217,198)"/>
<path d="M0 0 C3.3 0 6.6 0 10 0 C10 2.97 10 5.94 10 9 C6.7 9 3.4 9 0 9 C0 6.03 0 3.06 0 0 Z " fill="#EEEEEE" transform="translate(75,161)"/>
<path d="M0 0 C2.97 0 5.94 0 9 0 C9 3.3 9 6.6 9 10 C6.03 10 3.06 10 0 10 C0 6.7 0 3.4 0 0 Z " fill="#EEEEEE" transform="translate(66,151)"/>
<path d="M0 0 C3.3 0 6.6 0 10 0 C10 2.97 10 5.94 10 9 C6.7 9 3.4 9 0 9 C0 6.03 0 3.06 0 0 Z " fill="#FEFEFE" transform="translate(141,123)"/>
<path d="M0 0 C2.97 0 5.94 0 9 0 C9 3.3 9 6.6 9 10 C6.03 10 3.06 10 0 10 C0 6.7 0 3.4 0 0 Z " fill="#FEFEFE" transform="translate(85,47)"/>
<path d="M0 0 C2.97 0 5.94 0 9 0 C9 3.3 9 6.6 9 10 C6.03 10 3.06 10 0 10 C0 6.7 0 3.4 0 0 Z " fill="#EEEEEE" transform="translate(0,47)"/>
<path d="M0 0 C2.05078125 0.03255208 4.1015625 0.06510417 6.15234375 0.09765625 C6.15234375 3.39765625 6.15234375 6.69765625 6.15234375 10.09765625 C3.18234375 10.09765625 0.21234375 10.09765625 -2.84765625 10.09765625 C-2.9453125 3.1640625 -2.9453125 3.1640625 -2.84765625 1.09765625 C-1.84765625 0.09765625 -1.84765625 0.09765625 0 0 Z " fill="#FEFEFE" transform="translate(87.84765625,197.90234375)"/>
<path d="M0 0 C2.05078125 0.03255208 4.1015625 0.06510417 6.15234375 0.09765625 C6.15234375 3.39765625 6.15234375 6.69765625 6.15234375 10.09765625 C3.18234375 10.09765625 0.21234375 10.09765625 -2.84765625 10.09765625 C-2.9453125 3.1640625 -2.9453125 3.1640625 -2.84765625 1.09765625 C-1.84765625 0.09765625 -1.84765625 0.09765625 0 0 Z " fill="#EEEEEE" transform="translate(59.84765625,46.90234375)"/>
<path d="M0 0 C2.05078125 0.03255208 4.1015625 0.06510417 6.15234375 0.09765625 C6.15234375 3.39765625 6.15234375 6.69765625 6.15234375 10.09765625 C3.18234375 10.09765625 0.21234375 10.09765625 -2.84765625 10.09765625 C-2.9453125 3.1640625 -2.9453125 3.1640625 -2.84765625 1.09765625 C-1.84765625 0.09765625 -1.84765625 0.09765625 0 0 Z " fill="#EEEEEE" transform="translate(59.84765625,27.90234375)"/>
<path d="M0 0 C2.05078125 0.03255208 4.1015625 0.06510417 6.15234375 0.09765625 C6.15234375 3.39765625 6.15234375 6.69765625 6.15234375 10.09765625 C3.18234375 10.09765625 0.21234375 10.09765625 -2.84765625 10.09765625 C-2.9453125 3.1640625 -2.9453125 3.1640625 -2.84765625 1.09765625 C-1.84765625 0.09765625 -1.84765625 0.09765625 0 0 Z " fill="#FEFEFE" transform="translate(219.84765625,8.90234375)"/>
<path d="M0 0 C2.05078125 0.03255208 4.1015625 0.06510417 6.15234375 0.09765625 C6.15234375 3.39765625 6.15234375 6.69765625 6.15234375 10.09765625 C3.18234375 10.09765625 0.21234375 10.09765625 -2.84765625 10.09765625 C-2.9453125 3.1640625 -2.9453125 3.1640625 -2.84765625 1.09765625 C-1.84765625 0.09765625 -1.84765625 0.09765625 0 0 Z " fill="#FEFEFE" transform="translate(87.84765625,8.90234375)"/>
<path d="M0 0 C-0.66 2.97 -1.32 5.94 -2 9 C-4.97 9 -7.94 9 -11 9 C-11 6.03 -11 3.06 -11 0 C-3.375 -1.125 -3.375 -1.125 0 0 Z " fill="#FEFEFE" transform="translate(96,161)"/>
<path d="M0 0 C0.99 0.33 1.98 0.66 3 1 C2.01 1.495 2.01 1.495 1 2 C0.53348793 4.12576782 0.53348793 4.12576782 0.375 6.5625 C0.25125 8.026875 0.1275 9.49125 0 11 C-2.97 11 -5.94 11 -9 11 C-9 8.03 -9 5.06 -9 2 C-6.94921875 1.77213542 -4.8984375 1.54427083 -2.84765625 1.31640625 C-0.98859771 1.18113386 -0.98859771 1.18113386 0 0 Z " fill="#EDEEEE" transform="translate(19,93)"/>
<path d="M0 0 C0.66 0.66 1.32 1.32 2 2 C1.01 2.495 1.01 2.495 0 3 C-0.46523063 4.89533342 -0.46523063 4.89533342 -0.625 7.0625 C-0.74875 8.361875 -0.8725 9.66125 -1 11 C-3.97 11 -6.94 11 -10 11 C-10 8.03 -10 5.06 -10 2 C-8.535625 1.855625 -7.07125 1.71125 -5.5625 1.5625 C-2.48153302 1.46504174 -2.48153302 1.46504174 0 0 Z " fill="#EDEDED" transform="translate(10,83)"/>
<path d="M0 0 C2.475 0.99 2.475 0.99 5 2 C5 4.97 5 7.94 5 11 C2.03 11 -0.94 11 -4 11 C-4.8125 7.75 -4.8125 7.75 -5 4 C-2.5625 1.5625 -2.5625 1.5625 0 0 Z " fill="#EBEDEE" transform="translate(117,102)"/>
<path d="M0 0 C2.97 0 5.94 0 9 0 C9 2.97 9 5.94 9 9 C7.329375 9.2165625 7.329375 9.2165625 5.625 9.4375 C2.17857953 9.78372035 2.17857953 9.78372035 0 11 C0 7.37 0 3.74 0 0 Z " fill="#EDEEEE" transform="translate(57,66)"/>
<path d="M0 0 C2.97 0 5.94 0 9 0 C9 2.97 9 5.94 9 9 C2.9453125 9.9765625 2.9453125 9.9765625 1 10 C0.34 9.34 -0.32 8.68 -1 8 C-0.96712417 5.27130593 -0.43602229 2.7033382 0 0 Z " fill="#ECEDED" transform="translate(179,0)"/>
<path d="M0 0 C2.97 0 5.94 0 9 0 C9 2.97 9 5.94 9 9 C5.93109813 10.53445094 3.29905734 9.54984289 0 9 C0 6.03 0 3.06 0 0 Z " fill="#EEEEEE" transform="translate(10,170)"/>
<path d="M0 0 C2.97 0 5.94 0 9 0 C9 2.97 9 5.94 9 9 C6.03 9 3.06 9 0 9 C0 6.03 0 3.06 0 0 Z " fill="#EDEDED" transform="translate(217,208)"/>
<path d="M0 0 C2.97 0 5.94 0 9 0 C9 2.97 9 5.94 9 9 C6.03 9 3.06 9 0 9 C0 6.03 0 3.06 0 0 Z " fill="#FFFFFF" transform="translate(132,208)"/>
<path d="M0 0 C2.97 0 5.94 0 9 0 C9 2.97 9 5.94 9 9 C6.03 9 3.06 9 0 9 C0 6.03 0 3.06 0 0 Z " fill="#FFFFFF" transform="translate(113,208)"/>
<path d="M0 0 C2.97 0 5.94 0 9 0 C9 2.97 9 5.94 9 9 C6.03 9 3.06 9 0 9 C0 6.03 0 3.06 0 0 Z " fill="#EDEDED" transform="translate(104,208)"/>
<path d="M0 0 C2.97 0 5.94 0 9 0 C9 2.97 9 5.94 9 9 C6.03 9 3.06 9 0 9 C0 6.03 0 3.06 0 0 Z " fill="#EDEDED" transform="translate(85,208)"/>
<path d="M0 0 C2.97 0 5.94 0 9 0 C9 2.97 9 5.94 9 9 C6.03 9 3.06 9 0 9 C0 6.03 0 3.06 0 0 Z " fill="#EDEDED" transform="translate(66,208)"/>
<path d="M0 0 C2.97 0 5.94 0 9 0 C9 2.97 9 5.94 9 9 C6.03 9 3.06 9 0 9 C0 6.03 0 3.06 0 0 Z " fill="#FFFFFF" transform="translate(57,208)"/>
<path d="M0 0 C2.97 0 5.94 0 9 0 C9 2.97 9 5.94 9 9 C6.03 9 3.06 9 0 9 C0 6.03 0 3.06 0 0 Z " fill="#EDEDED" transform="translate(47,208)"/>
<path d="M0 0 C2.97 0 5.94 0 9 0 C9 2.97 9 5.94 9 9 C6.03 9 3.06 9 0 9 C0 6.03 0 3.06 0 0 Z " fill="#FFFFFF" transform="translate(38,208)"/>
<path d="M0 0 C2.97 0 5.94 0 9 0 C9 2.97 9 5.94 9 9 C6.03 9 3.06 9 0 9 C0 6.03 0 3.06 0 0 Z " fill="#FFFFFF" transform="translate(19,208)"/>
<path d="M0 0 C2.97 0 5.94 0 9 0 C9 2.97 9 5.94 9 9 C6.03 9 3.06 9 0 9 C0 6.03 0 3.06 0 0 Z " fill="#FFFFFF" transform="translate(0,208)"/>
<path d="M0 0 C2.97 0 5.94 0 9 0 C9 2.97 9 5.94 9 9 C6.03 9 3.06 9 0 9 C0 6.03 0 3.06 0 0 Z " fill="#EDEDED" transform="translate(113,199)"/>
<path d="M0 0 C2.97 0 5.94 0 9 0 C9 2.97 9 5.94 9 9 C6.03 9 3.06 9 0 9 C0 6.03 0 3.06 0 0 Z " fill="#EEEEEE" transform="translate(94,199)"/>
<path d="M0 0 C2.97 0 5.94 0 9 0 C9 2.97 9 5.94 9 9 C6.03 9 3.06 9 0 9 C0 6.03 0 3.06 0 0 Z " fill="#EDEDED" transform="translate(57,199)"/>
<path d="M0 0 C2.97 0 5.94 0 9 0 C9 2.97 9 5.94 9 9 C6.03 9 3.06 9 0 9 C0 6.03 0 3.06 0 0 Z " fill="#EDEDED" transform="translate(38,199)"/>
<path d="M0 0 C2.97 0 5.94 0 9 0 C9 2.97 9 5.94 9 9 C6.03 9 3.06 9 0 9 C0 6.03 0 3.06 0 0 Z " fill="#EDEDED" transform="translate(0,199)"/>
<path d="M0 0 C2.97 0 5.94 0 9 0 C9 2.97 9 5.94 9 9 C6.03 9 3.06 9 0 9 C0 6.03 0 3.06 0 0 Z " fill="#EDEDED" transform="translate(104,189)"/>
<path d="M0 0 C2.97 0 5.94 0 9 0 C9 2.97 9 5.94 9 9 C6.03 9 3.06 9 0 9 C0 6.03 0 3.06 0 0 Z " fill="#EDEDED" transform="translate(66,189)"/>
<path d="M0 0 C2.97 0 5.94 0 9 0 C9 2.97 9 5.94 9 9 C6.03 9 3.06 9 0 9 C0 6.03 0 3.06 0 0 Z " fill="#EDEDED" transform="translate(47,189)"/>
<path d="M0 0 C2.97 0 5.94 0 9 0 C9 2.97 9 5.94 9 9 C6.03 9 3.06 9 0 9 C0 6.03 0 3.06 0 0 Z " fill="#FFFFFF" transform="translate(19,189)"/>
<path d="M0 0 C2.97 0 5.94 0 9 0 C9 2.97 9 5.94 9 9 C6.03 9 3.06 9 0 9 C0 6.03 0 3.06 0 0 Z " fill="#EEEEEE" transform="translate(10,189)"/>
<path d="M0 0 C2.97 0 5.94 0 9 0 C9 2.97 9 5.94 9 9 C6.03 9 3.06 9 0 9 C0 6.03 0 3.06 0 0 Z " fill="#FFFFFF" transform="translate(85,180)"/>
<path d="M0 0 C2.97 0 5.94 0 9 0 C9 2.97 9 5.94 9 9 C6.03 9 3.06 9 0 9 C0 6.03 0 3.06 0 0 Z " fill="#EDEDED" transform="translate(57,180)"/>
<path d="M0 0 C2.97 0 5.94 0 9 0 C9 2.97 9 5.94 9 9 C6.03 9 3.06 9 0 9 C0 6.03 0 3.06 0 0 Z " fill="#FFFFFF" transform="translate(47,180)"/>
<path d="M0 0 C2.97 0 5.94 0 9 0 C9 2.97 9 5.94 9 9 C6.03 9 3.06 9 0 9 C0 6.03 0 3.06 0 0 Z " fill="#EDEDED" transform="translate(38,180)"/>
<path d="M0 0 C2.97 0 5.94 0 9 0 C9 2.97 9 5.94 9 9 C6.03 9 3.06 9 0 9 C0 6.03 0 3.06 0 0 Z " fill="#EDEDED" transform="translate(0,180)"/>
<path d="M0 0 C2.97 0 5.94 0 9 0 C9 2.97 9 5.94 9 9 C6.03 9 3.06 9 0 9 C0 6.03 0 3.06 0 0 Z " fill="#EDEDED" transform="translate(66,170)"/>
<path d="M0 0 C2.97 0 5.94 0 9 0 C9 2.97 9 5.94 9 9 C6.03 9 3.06 9 0 9 C0 6.03 0 3.06 0 0 Z " fill="#FFFFFF" transform="translate(57,170)"/>
<path d="M0 0 C2.97 0 5.94 0 9 0 C9 2.97 9 5.94 9 9 C6.03 9 3.06 9 0 9 C0 6.03 0 3.06 0 0 Z " fill="#EDEDED" transform="translate(47,170)"/>
<path d="M0 0 C2.97 0 5.94 0 9 0 C9 2.97 9 5.94 9 9 C6.03 9 3.06 9 0 9 C0 6.03 0 3.06 0 0 Z " fill="#FFFFFF" transform="translate(0,170)"/>
<path d="M0 0 C2.97 0 5.94 0 9 0 C9 2.97 9 5.94 9 9 C6.03 9 3.06 9 0 9 C0 6.03 0 3.06 0 0 Z " fill="#FFFFFF" transform="translate(66,161)"/>
<path d="M0 0 C2.97 0 5.94 0 9 0 C9 2.97 9 5.94 9 9 C6.03 9 3.06 9 0 9 C0 6.03 0 3.06 0 0 Z " fill="#EDEDED" transform="translate(57,161)"/>
<path d="M0 0 C2.97 0 5.94 0 9 0 C9 2.97 9 5.94 9 9 C6.03 9 3.06 9 0 9 C0 6.03 0 3.06 0 0 Z " fill="#EDEDED" transform="translate(0,161)"/>
<path d="M0 0 C2.97 0 5.94 0 9 0 C9 2.97 9 5.94 9 9 C6.03 9 3.06 9 0 9 C0 6.03 0 3.06 0 0 Z " fill="#FFFFFF" transform="translate(160,142)"/>
<path d="M0 0 C2.97 0 5.94 0 9 0 C9 2.97 9 5.94 9 9 C6.03 9 3.06 9 0 9 C0 6.03 0 3.06 0 0 Z " fill="#FFFFFF" transform="translate(160,123)"/>
<path d="M0 0 C2.97 0 5.94 0 9 0 C9 2.97 9 5.94 9 9 C6.03 9 3.06 9 0 9 C0 6.03 0 3.06 0 0 Z " fill="#EDEDED" transform="translate(132,123)"/>
<path d="M0 0 C2.97 0 5.94 0 9 0 C9 2.97 9 5.94 9 9 C6.03 9 3.06 9 0 9 C0 6.03 0 3.06 0 0 Z " fill="#EDEDED" transform="translate(0,104)"/>
<path d="M0 0 C2.97 0 5.94 0 9 0 C9 2.97 9 5.94 9 9 C6.03 9 3.06 9 0 9 C0 6.03 0 3.06 0 0 Z " fill="#EEEEEE" transform="translate(160,95)"/>
<path d="M0 0 C2.97 0 5.94 0 9 0 C9 2.97 9 5.94 9 9 C6.03 9 3.06 9 0 9 C0 6.03 0 3.06 0 0 Z " fill="#FFFFFF" transform="translate(132,95)"/>
<path d="M0 0 C2.97 0 5.94 0 9 0 C9 2.97 9 5.94 9 9 C6.03 9 3.06 9 0 9 C0 6.03 0 3.06 0 0 Z " fill="#EEEEEE" transform="translate(160,76)"/>
<path d="M0 0 C2.97 0 5.94 0 9 0 C9.75 2.75 9.75 2.75 10 6 C8.3125 8.4375 8.3125 8.4375 6 10 C3.48040302 9.92364858 2.27845257 9.18243444 0.1875 7.8125 C-1 6 -1 6 -0.6875 2.8125 C-0.460625 1.884375 -0.23375 0.95625 0 0 Z " fill="#E8EBEE" transform="translate(66,76)"/>
<path d="M0 0 C2.97 0 5.94 0 9 0 C9 2.97 9 5.94 9 9 C6.03 9 3.06 9 0 9 C0 6.03 0 3.06 0 0 Z " fill="#EDEDED" transform="translate(66,57)"/>
<path d="M0 0 C2.97 0 5.94 0 9 0 C9 2.97 9 5.94 9 9 C6.03 9 3.06 9 0 9 C0 6.03 0 3.06 0 0 Z " fill="#FFFFFF" transform="translate(57,57)"/>
<path d="M0 0 C2.97 0 5.94 0 9 0 C9 2.97 9 5.94 9 9 C6.03 9 3.06 9 0 9 C0 6.03 0 3.06 0 0 Z " fill="#EDEDED" transform="translate(47,57)"/>
<path d="M0 0 C2.97 0 5.94 0 9 0 C9 2.97 9 5.94 9 9 C6.03 9 3.06 9 0 9 C0 6.03 0 3.06 0 0 Z " fill="#FFFFFF" transform="translate(0,57)"/>
<path d="M0 0 C2.97 0 5.94 0 9 0 C9 2.97 9 5.94 9 9 C6.03 9 3.06 9 0 9 C0 6.03 0 3.06 0 0 Z " fill="#EDEDED" transform="translate(85,38)"/>
<path d="M0 0 C2.97 0 5.94 0 9 0 C9 2.97 9 5.94 9 9 C6.03 9 3.06 9 0 9 C0 6.03 0 3.06 0 0 Z " fill="#EDEDED" transform="translate(66,38)"/>
<path d="M0 0 C2.97 0 5.94 0 9 0 C9 2.97 9 5.94 9 9 C6.03 9 3.06 9 0 9 C0 6.03 0 3.06 0 0 Z " fill="#EDEDED" transform="translate(47,38)"/>
<path d="M0 0 C2.97 0 5.94 0 9 0 C9 2.97 9 5.94 9 9 C6.03 9 3.06 9 0 9 C0 6.03 0 3.06 0 0 Z " fill="#FFFFFF" transform="translate(38,38)"/>
<path d="M0 0 C2.97 0 5.94 0 9 0 C9 2.97 9 5.94 9 9 C6.03 9 3.06 9 0 9 C0 6.03 0 3.06 0 0 Z " fill="#FFFFFF" transform="translate(19,38)"/>
<path d="M0 0 C2.97 0 5.94 0 9 0 C9 2.97 9 5.94 9 9 C6.03 9 3.06 9 0 9 C0 6.03 0 3.06 0 0 Z " fill="#EEEEEE" transform="translate(10,38)"/>
<path d="M0 0 C2.97 0 5.94 0 9 0 C9 2.97 9 5.94 9 9 C6.03 9 3.06 9 0 9 C0 6.03 0 3.06 0 0 Z " fill="#FFFFFF" transform="translate(113,19)"/>
<path d="M0 0 C2.97 0 5.94 0 9 0 C9 2.97 9 5.94 9 9 C6.03 9 3.06 9 0 9 C0 6.03 0 3.06 0 0 Z " fill="#EDEDED" transform="translate(104,19)"/>
<path d="M0 0 C2.97 0 5.94 0 9 0 C9 2.97 9 5.94 9 9 C6.03 9 3.06 9 0 9 C0 6.03 0 3.06 0 0 Z " fill="#EDEDED" transform="translate(66,19)"/>
<path d="M0 0 C2.97 0 5.94 0 9 0 C9 2.97 9 5.94 9 9 C6.03 9 3.06 9 0 9 C0 6.03 0 3.06 0 0 Z " fill="#EDEDED" transform="translate(47,19)"/>
<path d="M0 0 C2.97 0 5.94 0 9 0 C9 2.97 9 5.94 9 9 C6.03 9 3.06 9 0 9 C0 6.03 0 3.06 0 0 Z " fill="#FFFFFF" transform="translate(38,19)"/>
<path d="M0 0 C2.97 0 5.94 0 9 0 C9 2.97 9 5.94 9 9 C6.03 9 3.06 9 0 9 C0 6.03 0 3.06 0 0 Z " fill="#FFFFFF" transform="translate(19,19)"/>
<path d="M0 0 C2.97 0 5.94 0 9 0 C9 2.97 9 5.94 9 9 C6.03 9 3.06 9 0 9 C0 6.03 0 3.06 0 0 Z " fill="#FFFFFF" transform="translate(0,19)"/>
<path d="M0 0 C2.97 0 5.94 0 9 0 C9 2.97 9 5.94 9 9 C6.03 9 3.06 9 0 9 C0 6.03 0 3.06 0 0 Z " fill="#EDEDED" transform="translate(113,10)"/>
<path d="M0 0 C2.97 0 5.94 0 9 0 C9 2.97 9 5.94 9 9 C6.03 9 3.06 9 0 9 C0 6.03 0 3.06 0 0 Z " fill="#EEEEEE" transform="translate(94,10)"/>
<path d="M0 0 C2.97 0 5.94 0 9 0 C9 2.97 9 5.94 9 9 C6.03 9 3.06 9 0 9 C0 6.03 0 3.06 0 0 Z " fill="#EDEDED" transform="translate(57,10)"/>
<path d="M0 0 C2.97 0 5.94 0 9 0 C9 2.97 9 5.94 9 9 C6.03 9 3.06 9 0 9 C0 6.03 0 3.06 0 0 Z " fill="#EDEDED" transform="translate(38,10)"/>
<path d="M0 0 C2.97 0 5.94 0 9 0 C9 2.97 9 5.94 9 9 C6.03 9 3.06 9 0 9 C0 6.03 0 3.06 0 0 Z " fill="#EDEDED" transform="translate(0,10)"/>
<path d="M0 0 C2.97 0 5.94 0 9 0 C9 2.97 9 5.94 9 9 C6.03 9 3.06 9 0 9 C0 6.03 0 3.06 0 0 Z " fill="#FFFFFF" transform="translate(132,0)"/>
<path d="M0 0 C2.97 0 5.94 0 9 0 C9 2.97 9 5.94 9 9 C6.03 9 3.06 9 0 9 C0 6.03 0 3.06 0 0 Z " fill="#EEEEEE" transform="translate(123,0)"/>
<path d="M0 0 C2.97 0 5.94 0 9 0 C9 2.97 9 5.94 9 9 C6.03 9 3.06 9 0 9 C0 6.03 0 3.06 0 0 Z " fill="#EDEDED" transform="translate(104,0)"/>
<path d="M0 0 C2.97 0 5.94 0 9 0 C9 2.97 9 5.94 9 9 C6.03 9 3.06 9 0 9 C0 6.03 0 3.06 0 0 Z " fill="#EDEDED" transform="translate(66,0)"/>
<path d="M0 0 C2.97 0 5.94 0 9 0 C9 2.97 9 5.94 9 9 C6.03 9 3.06 9 0 9 C0 6.03 0 3.06 0 0 Z " fill="#EDEDED" transform="translate(47,0)"/>
<path d="M0 0 C2.97 0 5.94 0 9 0 C9 2.97 9 5.94 9 9 C6.03 9 3.06 9 0 9 C0 6.03 0 3.06 0 0 Z " fill="#FFFFFF" transform="translate(19,0)"/>
<path d="M0 0 C2.97 0 5.94 0 9 0 C9 2.97 9 5.94 9 9 C6.03 9 3.06 9 0 9 C0 6.03 0 3.06 0 0 Z " fill="#EEEEEE" transform="translate(10,0)"/>
<path d="M0 0 C2.05078125 0.03255208 4.1015625 0.06510417 6.15234375 0.09765625 C6.15234375 3.06765625 6.15234375 6.03765625 6.15234375 9.09765625 C3.18234375 9.09765625 0.21234375 9.09765625 -2.84765625 9.09765625 C-2.9453125 2.9453125 -2.9453125 2.9453125 -2.84765625 1.09765625 C-1.84765625 0.09765625 -1.84765625 0.09765625 0 0 Z " fill="#EEEEEE" transform="translate(96.84765625,179.90234375)"/>
<path d="M0 0 C2.97 0 5.94 0 9 0 C9 2.97 9 5.94 9 9 C6.69 9.33 4.38 9.66 2 10 C-0.4294516 6.3558226 -0.16179575 4.28758728 0 0 Z " fill="#ECEDED" transform="translate(217,19)"/>
<path d="M0 0 C0.66 0.33 1.32 0.66 2 1 C2 3.97 2 6.94 2 10 C-0.97 10 -3.94 10 -7 10 C-7.33 8.02 -7.66 6.04 -8 4 C-6.71349294 3.30289269 -5.42059335 2.61757124 -4.125 1.9375 C-3.40570313 1.55464844 -2.68640625 1.17179688 -1.9453125 0.77734375 C-1.30335938 0.52082031 -0.66140625 0.26429688 0 0 Z " fill="#EAECEE" transform="translate(214,198)"/>
<path d="M0 0 C0.33 0 0.66 0 1 0 C1 6.27 1 12.54 1 19 C6.61 19 12.22 19 18 19 C18 19.33 18 19.66 18 20 C12.39 20 6.78 20 1 20 C1 25.61 1 31.22 1 37 C0.67 37 0.34 37 0 37 C0 31.39 0 25.78 0 20 C-5.61 20 -11.22 20 -17 20 C-17 19.67 -17 19.34 -17 19 C-11.39 19 -5.78 19 0 19 C0 12.73 0 6.46 0 0 Z " fill="#F7F7F7" transform="translate(56,160)"/>
<path d="M0 0 C0.66 0.99 1.32 1.98 2 3 C2.87072072 4.23220174 3.74584102 5.46130459 4.625 6.6875 C5.07101562 7.31011719 5.51703125 7.93273437 5.9765625 8.57421875 C6.31429688 9.04472656 6.65203125 9.51523438 7 10 C6 11 6 11 3.93359375 11.09765625 C0.46679688 11.04882812 0.46679688 11.04882812 -3 11 C-3 7.7 -3 4.4 -3 1 C-2.01 0.67 -1.02 0.34 0 0 Z " fill="#FDFEFE" transform="translate(3,74)"/>
<path d="M0 0 C2.97 0 5.94 0 9 0 C8.25 4.75 8.25 4.75 6 7 C5.30251417 8.31747324 4.63040043 9.64914193 4 11 C3.67 10.34 3.34 9.68 3 9 C2.01 9 1.02 9 0 9 C0 6.03 0 3.06 0 0 Z " fill="#E7EBEE" transform="translate(0,66)"/>
<path d="M0 0 C3.3 0 6.6 0 10 0 C10 2.64 10 5.28 10 8 C6.06629643 7.43804235 3.16824393 6.44407389 0 4 C0 2.68 0 1.36 0 0 Z " fill="#FBFCFD" transform="translate(169,0)"/>
<path d="M0 0 C3.3 0 6.6 0 10 0 C10 1.98 10 3.96 10 6 C6.7 6 3.4 6 0 6 C0 4.02 0 2.04 0 0 Z " fill="#FDFDFD" transform="translate(122,217)"/>
<path d="M0 0 C3.3 0 6.6 0 10 0 C10 1.98 10 3.96 10 6 C6.7 6 3.4 6 0 6 C0 4.02 0 2.04 0 0 Z " fill="#FDFDFD" transform="translate(28,217)"/>
<path d="M0 0 C7.09821429 6.02678571 7.09821429 6.02678571 10 9 C9 10 9 10 6.93359375 10.09765625 C3.46679688 10.04882812 3.46679688 10.04882812 0 10 C0 6.7 0 3.4 0 0 Z " fill="#EDEEEF" transform="translate(104,169)"/>
<path d="M0 0 C2.97 0 5.94 0 9 0 C9 1.98 9 3.96 9 6 C6.03 6 3.06 6 0 6 C0 4.02 0 2.04 0 0 Z " fill="#EEEEEE" transform="translate(132,217)"/>
<path d="M0 0 C2.97 0 5.94 0 9 0 C9 1.98 9 3.96 9 6 C6.03 6 3.06 6 0 6 C0 4.02 0 2.04 0 0 Z " fill="#EFEFEF" transform="translate(94,217)"/>
<path d="M0 0 C2.97 0 5.94 0 9 0 C9 1.98 9 3.96 9 6 C6.03 6 3.06 6 0 6 C0 4.02 0 2.04 0 0 Z " fill="#EEEEEE" transform="translate(38,217)"/>
<path d="M0 0 C2.97 0 5.94 0 9 0 C9 1.98 9 3.96 9 6 C6.03 6 3.06 6 0 6 C0 4.02 0 2.04 0 0 Z " fill="#EEEEEE" transform="translate(19,217)"/>
<path d="M0 0 C4.37859255 0.50522222 6.81651224 3.17827222 10 6 C9.67 6.66 9.34 7.32 9 8 C6.03 8 3.06 8 0 8 C0 5.36 0 2.72 0 0 Z " fill="#EBEDEE" transform="translate(94,162)"/>
<path d="M0 0 C2.05078125 0.03255208 4.1015625 0.06510417 6.15234375 0.09765625 C6.15234375 2.07765625 6.15234375 4.05765625 6.15234375 6.09765625 C3.18234375 6.09765625 0.21234375 6.09765625 -2.84765625 6.09765625 C-2.89037725 4.4315372 -2.88829457 2.7638274 -2.84765625 1.09765625 C-1.84765625 0.09765625 -1.84765625 0.09765625 0 0 Z " fill="#FEFEFE" transform="translate(200.84765625,216.90234375)"/>
<path d="M0 0 C2.05078125 0.03255208 4.1015625 0.06510417 6.15234375 0.09765625 C6.15234375 2.07765625 6.15234375 4.05765625 6.15234375 6.09765625 C3.18234375 6.09765625 0.21234375 6.09765625 -2.84765625 6.09765625 C-2.89037725 4.4315372 -2.88829457 2.7638274 -2.84765625 1.09765625 C-1.84765625 0.09765625 -1.84765625 0.09765625 0 0 Z " fill="#FEFEFE" transform="translate(87.84765625,216.90234375)"/>
<path d="M0 0 C2.05078125 0.03255208 4.1015625 0.06510417 6.15234375 0.09765625 C6.15234375 2.07765625 6.15234375 4.05765625 6.15234375 6.09765625 C3.18234375 6.09765625 0.21234375 6.09765625 -2.84765625 6.09765625 C-2.89037725 4.4315372 -2.88829457 2.7638274 -2.84765625 1.09765625 C-1.84765625 0.09765625 -1.84765625 0.09765625 0 0 Z " fill="#EEEEEE" transform="translate(59.84765625,216.90234375)"/>
<path d="M0 0 C0 3.3 0 6.6 0 10 C-3 10 -3 10 -5.6875 7.5 C-6.450625 6.675 -7.21375 5.85 -8 5 C-2.25 0 -2.25 0 0 0 Z " fill="#F7FAFC" transform="translate(113,107)"/>
<path d="M0 0 C2.31 0 4.62 0 7 0 C7 3.69418201 5.71820705 5.77836178 4 9 C2.68 9 1.36 9 0 9 C0 6.03 0 3.06 0 0 Z " fill="#EAEDEE" transform="translate(0,142)"/>
<path d="M0 0 C1.34173403 0.92543709 2.67320159 1.86577405 4 2.8125 C5.11375 3.59560547 5.11375 3.59560547 6.25 4.39453125 C6.8275 4.92433594 7.405 5.45414063 8 6 C8 6.99 8 7.98 8 9 C5.36 9 2.72 9 0 9 C0 6.03 0 3.06 0 0 Z " fill="#EAEDEF" transform="translate(85,152)"/>
<path d="M0 0 C0.66 0.33 1.32 0.66 2 1 C1.67 1.33 1.34 1.66 1 2 C0.63239269 4.32817964 0.29758419 6.6618385 0 9 C-3.3 9 -6.6 9 -10 9 C-6.83047153 5.73991357 -3.60062011 2.77762123 0 0 Z " fill="#E8EDF0" transform="translate(151,76)"/>
<path d="M0 0 C0 2.97 0 5.94 0 9 C-3.3 9 -6.6 9 -10 9 C-9.21625 8.4225 -8.4325 7.845 -7.625 7.25 C-5.15143113 5.12979811 -4.28957943 3.87675412 -3 1 C-1 0 -1 0 0 0 Z " fill="#EAEDEF" transform="translate(226,189)"/>
<path d="M0 0 C4.41889613 1.35021826 6.34345343 3.26115668 9 7 C6.03 7 3.06 7 0 7 C0 4.69 0 2.38 0 0 Z " fill="#EDEEEF" transform="translate(75,144)"/>
<path d="M0 0 C2.64 0 5.28 0 8 0 C8 0.99 8 1.98 8 3 C4.04 4.98 4.04 4.98 0 7 C0 4.69 0 2.38 0 0 Z " fill="#EBEDEE" transform="translate(10,132)"/>
<path d="M0 0 C2.97 0 5.94 0 9 0 C9 1.32 9 2.64 9 4 C4.545 4.495 4.545 4.495 0 5 C0 3.35 0 1.7 0 0 Z " fill="#E5EAEE" transform="translate(160,0)"/>
<path d="M0 0 C-1.11878383 1.17262904 -2.24523051 2.33795138 -3.375 3.5 C-4.00148438 4.1496875 -4.62796875 4.799375 -5.2734375 5.46875 C-7 7 -7 7 -9 7 C-9 4.69 -9 2.38 -9 0 C-2.25 -1.125 -2.25 -1.125 0 0 Z " fill="#F4F8FB" transform="translate(103,57)"/>
<path d="M0 0 C0.66 0.33 1.32 0.66 2 1 C1.34 2.65 0.68 4.3 0 6 C-2.64 6 -5.28 6 -8 6 C-8 5.34 -8 4.68 -8 4 C-6.71349294 3.30289269 -5.42059335 2.61757124 -4.125 1.9375 C-3.40570313 1.55464844 -2.68640625 1.17179688 -1.9453125 0.77734375 C-1.30335938 0.52082031 -0.66140625 0.26429688 0 0 Z " fill="#E8EDEF" transform="translate(188,211)"/>
<path d="M0 0 C0 1.65 0 3.3 0 5 C-2.64 5 -5.28 5 -8 5 C-7 2 -7 2 -5.125 0.8125 C-3 0 -3 0 0 0 Z " fill="#F6FAFC" transform="translate(207,203)"/>
<path d="M0 0 C2.31 0 4.62 0 7 0 C5.38405168 2.04119788 3.7143618 4.04072937 2 6 C1.34 6 0.68 6 0 6 C0 4.02 0 2.04 0 0 Z " fill="#F7FAFC" transform="translate(85,66)"/>
<path d="M0 0 C4.5 3 4.5 3 9 6 C6.03 6 3.06 6 0 6 C0 4.02 0 2.04 0 0 Z " fill="#E7EBEF" transform="translate(19,164)"/>
<path d="M0 0 C0.33 0 0.66 0 1 0 C1.33 3.3 1.66 6.6 2 10 C-0.52053595 11.26026798 -1.8542098 10.91874445 -4.625 10.5625 C-5.44226563 10.46066406 -6.25953125 10.35882813 -7.1015625 10.25390625 C-7.72804688 10.17011719 -8.35453125 10.08632812 -9 10 C-9 9.67 -9 9.34 -9 9 C-6.03 9 -3.06 9 0 9 C0 6.03 0 3.06 0 0 Z " fill="#F7F7F7" transform="translate(122,189)"/>
<path d="M0 0 C0.66 0.33 1.32 0.66 2 1 C1.34 2.65 0.68 4.3 0 6 C-1.98 6 -3.96 6 -6 6 C-4 4 -2 2 0 0 Z " fill="#E7EDF1" transform="translate(160,69)"/>
<path d="M0 0 C2.49361571 1.20381448 4.68143083 2.45428722 7 4 C6.67 4.66 6.34 5.32 6 6 C4.35 6 2.7 6 1 6 C0.67 4.02 0.34 2.04 0 0 Z " fill="#F4F8FA" transform="translate(150,212)"/>
<path d="M0 0 C3.875 1.75 3.875 1.75 5 4 C3.02 4 1.04 4 -1 4 C-1 1 -1 1 0 0 Z " fill="#DEE8EF" transform="translate(69,138)"/>
<path d="M0 0 C1.65 0 3.3 0 5 0 C4.67 1.65 4.34 3.3 4 5 C2.64567325 3.68799596 1.31266518 2.35368596 0 1 C0 0.67 0 0.34 0 0 Z " fill="#EDEFF1" transform="translate(108,113)"/>
</svg>
